<svg width="528" height="535" viewBox="0 0 528 535" fill="none" xmlns="http://www.w3.org/2000/svg">
<path d="M77.9353 249.121C-24.8635 313.734 -24.8527 418.503 77.9353 483.116C180.723 547.729 347.396 547.729 450.195 483.116C552.994 418.503 552.983 313.793 450.195 249.121C347.407 184.449 180.734 184.508 77.9353 249.121Z" fill="#F5F5F5"/>
<path d="M342.579 7.00104C342.579 3.19128 338.745 0.545611 334.403 0.098787C329.295 -0.430347 325.666 2.0507 325.547 6.43663C322.199 4.9433 318.678 5.9075 318.937 9.96419C318.073 8.87065 314.811 8.90593 313.645 9.21165C313.018 9.39418 312.435 9.7205 311.934 10.1687C311.433 10.6169 311.025 11.1766 310.739 11.8103C310.458 12.45 310.353 13.1647 310.437 13.868C308.482 13.1743 304.054 12.6922 302.942 14.6911C300.965 18.2187 308.849 18.2187 310.437 17.2192C310.783 19.9119 319.25 20.3587 321.302 17.8659C322.912 19.6297 325.212 20.0177 327.696 20.2176C331.887 20.4881 334.457 18.9477 337.73 17.1251C341.283 20.4058 347.45 20.4646 350.636 16.7136C351.457 17.5602 353.704 17.8189 355.507 17.3486C356.695 17.0428 356.965 16.4902 356.965 16.4902C357.66 16.8096 358.384 17.0462 359.126 17.1957C361.458 17.7248 365.779 17.1957 363.964 14.844C362.85 13.9884 361.481 13.623 360.13 13.821C359.115 11.6457 355.043 9.58792 352.71 11.4693C352.613 8.83537 350.41 6.76587 347.31 6.26026C346.273 6.07212 343.767 5.93102 342.579 7.00104Z" fill="#F5F5F5"/>
<path d="M65.8064 17.4779C65.8064 12.9038 61.2054 9.72899 55.9888 9.24689C49.8433 8.61193 45.4907 11.5986 45.3395 16.8664C42.4774 14.3501 37.088 16.2197 37.412 21.0289C36.3319 19.712 32.4546 19.759 31.0505 20.1235C30.29 20.3502 29.5831 20.752 28.9775 21.3018C28.372 21.8515 27.8819 22.5364 27.5403 23.3101C27.2067 24.0748 27.083 24.9282 27.1839 25.7676C24.8402 24.9328 19.5156 24.4272 18.1763 26.7553C15.811 30.9179 25.2831 31.059 27.1947 29.8008C27.5944 33.0344 37.7792 33.5635 40.2417 30.5769C42.4865 32.7928 45.3693 34.0898 48.3961 34.2455C53.4615 34.5748 58.4621 32.0349 59.9418 29.6362C64.2619 33.5753 71.6063 33.6458 75.4512 29.1423C76.4341 30.1418 79.1342 30.4593 81.3051 29.8949C82.7307 29.5304 83.0548 28.8601 83.0548 28.8601C83.8936 29.2523 84.7704 29.5403 85.6685 29.7185C88.4658 30.3535 93.6608 29.7185 91.4791 26.9435C90.7339 26.0146 88.0122 25.4266 86.8673 25.7676C85.6469 23.1572 80.7543 20.6879 77.9569 22.8985C77.8489 19.7355 75.192 17.2662 71.4766 16.6312C70.2346 16.3726 67.2321 16.1844 65.8064 17.4779Z" fill="#F5F5F5"/>
<path d="M331.12 46.1687C330.084 45.7444 328.987 45.5254 327.88 45.522C326.8 45.4279 326.519 45.2045 326.314 44.9576C325.32 43.399 323.867 42.2568 322.195 41.72C320.524 41.1833 318.734 41.2842 317.123 42.0062C316.673 40.475 315.709 39.185 314.423 38.3938C313.138 37.6025 311.626 37.3683 310.189 37.7378C310.297 34.2103 306.171 30.4358 302.466 29.5774C298.762 28.719 295.813 29.0953 293.826 31.6469C291.666 27.0258 283.133 25.7677 278.522 28.1194C275.876 29.5186 273.629 30.9649 272.527 33.6106C271.802 35.2464 271.461 37.0522 271.534 38.8667C269.741 37.1382 266.133 36.6796 263.747 37.6908C261.154 38.7726 260.96 40.9009 260.83 43.0527C259.296 42.5706 257.671 42.5381 256.121 42.9586C254.491 43.4878 253.562 44.8753 253.778 46.0041C252.493 45.9335 249.458 47.0624 249.771 48.5439C250.084 50.0255 253.681 50.0373 254.987 49.9902C256.226 49.9079 257.457 49.7232 258.67 49.4376C259.282 49.6898 259.928 49.8251 260.582 49.8374C262.818 49.8374 263.757 48.7791 264.114 47.8737C265.194 50.3665 269.082 52.2714 271.825 53.0357C276.988 54.482 284.3 53.6001 287.475 49.4023C287.851 50.1922 288.378 50.8857 289.02 51.4365C290.384 52.6387 292.046 53.3715 293.793 53.5413C295.954 53.7647 301.602 54.0587 303.201 50.39C304.346 52.824 309.411 53.9176 313.256 53.3414C314.75 53.0951 316.204 52.6201 317.576 51.9304C318.428 51.4401 319.253 50.8984 320.049 50.3077C320.361 50.0656 320.728 49.923 321.109 49.896C321.491 49.869 321.872 49.9586 322.21 50.1548C324.933 51.1955 327.9 51.1955 330.623 50.1548C332.686 49.1201 333.194 47.1564 331.12 46.1687Z" fill="#F5F5F5"/>
<path d="M455.401 42.4883C465.881 42.4883 474.377 33.2807 474.377 21.9226C474.377 10.5645 465.881 1.35693 455.401 1.35693C444.921 1.35693 436.424 10.5645 436.424 21.9226C436.424 33.2807 444.921 42.4883 455.401 42.4883Z" fill="#F99417"/>
<path d="M220.158 209.192L76.5558 267.343C56.2885 275.554 54.9484 295.843 73.5633 312.677L257.664 478.95C350.688 563.41 549.564 457.18 474.905 391.349L282.229 216.674C263.614 199.84 240.423 200.993 220.158 209.192Z" fill="#E0E0E0"/>
<path d="M400.198 249.619C407.085 261.066 416.766 281.113 395.48 262.506C374.195 243.9 266.249 161.966 266.249 161.966L254.566 228.227L360.831 321.433C360.831 321.433 386.172 307.645 399.473 296.833C412.775 286.021 412.138 269.479 412.138 269.479L400.198 249.619Z" fill="black"/>
<path d="M407.779 259.803L407.983 264.866C409.563 270.338 413.917 277.673 415.966 277.497C417.805 277.332 419.369 274.742 420.527 271.412C421.076 269.811 421.522 268.174 421.862 266.513C422.984 261.147 422.993 248.158 416.691 243.596C416.06 243.149 415.308 242.936 414.545 242.986C413.781 243.035 413.044 243.346 412.442 243.874C411.345 244.712 410.443 245.819 409.811 247.099C408.013 250.639 407.657 259.567 407.779 259.803Z" fill="#263238"/>
<path d="M407.994 264.868C409.573 270.34 413.928 277.675 415.977 277.499C417.816 277.334 419.38 274.744 420.538 271.414C421.087 269.813 421.533 268.176 421.873 266.515C422.995 261.149 423.004 248.16 416.702 243.598C416.071 243.151 415.319 242.938 414.555 242.987C413.792 243.037 413.055 243.348 412.452 243.876L412.98 246.357C417.404 249.441 417.274 257.764 415.742 263.846C414.209 269.928 410.189 268.526 407.994 264.868Z" fill="#455A64"/>
<path d="M409.84 247.057C411.938 245.361 416.275 246.018 418.953 252.102C421.631 258.186 421.174 267.741 420.556 271.369C421.105 269.769 421.551 268.132 421.892 266.471C423.014 261.104 423.023 248.115 416.733 243.544C414.092 241.669 411.16 244.424 409.84 247.057Z" fill="#37474F"/>
<path d="M136.137 183.106L258.72 133.201C261.957 136.132 264.456 139.901 265.997 144.176C267.538 148.452 268.074 153.103 267.557 157.72L264 195.432L141.407 245.335L127.389 232.655L136.137 183.106Z" fill="#37474F"/>
<path d="M133.619 197.384L265.939 144.073C264.397 139.855 261.916 136.139 258.712 133.247L136.137 183.106L133.619 197.384Z" fill="#455A64"/>
<path d="M127.394 232.691L136.137 183.106C139.372 186.039 141.87 189.808 143.411 194.083C144.952 198.358 145.489 203.008 144.974 207.625L141.407 245.335L127.394 232.691Z" fill="#263238"/>
<path d="M144.97 207.648L141.409 245.383L164.677 266.429L261.005 227.225L267.562 157.756L144.97 207.648Z" fill="#37474F"/>
<path d="M258.43 224.908L358.652 315.628L262.333 354.846L162.103 264.112L258.43 224.908Z" fill="black"/>
<path d="M290.601 289.815L303.201 291.75L324.446 283.222C326.401 282.561 328.45 282.346 330.462 282.592C332.473 282.838 334.403 283.538 336.126 284.648L357.287 300.105L373.216 302.567L371.438 312.653C371.233 313.811 370.295 314.84 368.632 315.502L322.446 334.306C320.595 334.954 318.629 335.035 316.769 334.538C314.909 334.041 313.23 332.987 311.92 331.495L290.119 304.117C289.633 303.572 289.272 302.91 289.062 302.182C288.852 301.454 288.8 300.679 288.908 299.916L290.601 289.815Z" fill="#37474F"/>
<path d="M370.358 305.406L324.172 324.211C322.321 324.859 320.355 324.939 318.495 324.442C316.635 323.946 314.955 322.892 313.645 321.399L291.843 294.033C289.491 291.076 290.388 287.544 293.847 286.148L326.184 273.116C328.139 272.458 330.188 272.245 332.199 272.491C334.21 272.737 336.14 273.436 337.864 274.543L371.197 298.904C374.189 301.091 373.808 303.997 370.358 305.406Z" fill="#455A64"/>
<path d="M290.589 289.824L288.814 299.887C288.706 300.65 288.759 301.425 288.972 302.152C289.184 302.879 289.549 303.538 290.038 304.079L311.828 331.455C313.075 332.931 314.702 333.969 316.511 334.442L318.29 324.356C316.48 323.883 314.853 322.845 313.607 321.369L291.855 294.024C291.361 293.483 290.99 292.824 290.771 292.096C290.551 291.369 290.489 290.592 290.589 289.824Z" fill="#263238"/>
<path d="M287.114 286.143C286.969 286.581 286.935 287.049 287.016 287.499C287.097 287.948 287.29 288.362 287.574 288.696L296.983 297.22C296.686 296.895 296.483 296.481 296.398 296.029C296.313 295.576 296.349 295.103 296.502 294.664L308.731 238.744C309.075 237.482 309.673 236.311 310.482 235.317C311.291 234.323 312.291 233.532 313.407 233.002L341.139 221.642C341.57 221.423 342.043 221.329 342.512 221.37C342.98 221.41 343.426 221.584 343.807 221.873L334.462 213.42C334.08 213.112 333.626 212.923 333.147 212.872C332.668 212.821 332.182 212.91 331.738 213.13L303.991 224.452C302.874 224.98 301.873 225.771 301.064 226.765C300.254 227.759 299.657 228.931 299.315 230.195L287.114 286.143Z" fill="#263238"/>
<path d="M341.139 221.642L313.457 232.963C312.343 233.496 311.345 234.288 310.536 235.281C309.728 236.275 309.128 237.445 308.782 238.706L296.549 294.648C296.045 296.947 297.309 298.173 299.366 297.33L338.818 281.266C339.893 280.761 340.828 279.949 341.52 278.919C342.213 277.889 342.635 276.681 342.742 275.427L344.736 224.437C344.818 223.938 344.77 223.428 344.599 222.965C344.427 222.501 344.139 222.102 343.766 221.812C343.393 221.522 342.949 221.353 342.485 221.323C342.021 221.292 341.555 221.403 341.139 221.642Z" fill="#37474F"/>
<path d="M301.08 226.781L310.47 235.29C311.27 234.275 312.28 233.478 313.413 232.967L341.139 221.642C341.57 221.423 342.043 221.329 342.512 221.37C342.98 221.41 343.427 221.584 343.807 221.873L334.462 213.42C334.08 213.112 333.626 212.923 333.147 212.872C332.668 212.821 332.182 212.91 331.738 213.13L303.991 224.452C302.869 224.969 301.87 225.768 301.08 226.781Z" fill="#455A64"/>
<path d="M306.884 219.363L309.365 205.293C311.144 195.207 319.159 184.334 327.26 181.058C330.971 179.54 334.05 179.868 336.143 181.681L343.296 188.196L338.409 195.012L336.227 207.391C335.939 208.657 335.381 209.839 334.598 210.843C333.815 211.846 332.829 212.641 331.721 213.163L322.788 216.806L314.514 228.338L307.446 221.898C307.153 221.573 306.947 221.167 306.848 220.722C306.75 220.277 306.762 219.808 306.884 219.363Z" fill="#263238"/>
<path d="M323.731 201.068L314.519 192.734C317.954 187.369 322.585 183.004 327.251 181.105C330.963 179.586 334.042 179.914 336.135 181.728L343.288 188.243L338.401 195.058L337.972 197.49L323.731 201.068Z" fill="#455A64"/>
<path d="M313.922 225.786L316.395 211.762C318.173 201.676 326.188 190.803 334.291 187.516C342.395 184.228 347.524 189.718 345.744 199.816L343.273 213.827C342.987 215.095 342.429 216.281 341.646 217.286C340.862 218.291 339.875 219.088 338.766 219.611L316.931 228.501C314.853 229.341 313.51 228.125 313.922 225.786Z" fill="#37474F"/>
<path d="M338.272 233.482C339.147 246.453 338.356 259.545 335.92 272.385C335.601 273.686 335.048 274.913 334.293 275.994C333.537 277.074 332.595 277.987 331.52 278.678C324.481 282.581 317.073 285.606 309.444 287.693C308.999 287.863 308.524 287.903 308.067 287.807C307.611 287.711 307.19 287.483 306.849 287.147C306.508 286.811 306.26 286.38 306.129 285.897C305.999 285.415 305.992 284.9 306.108 284.406C307.83 270.509 310.225 256.699 313.283 243.034C314.051 240.425 315.698 238.202 317.889 236.813C323.046 234.014 328.449 231.812 334.006 230.246C334.495 230.097 335.005 230.066 335.5 230.155C335.995 230.243 336.462 230.449 336.869 230.758C337.277 231.067 337.613 231.471 337.856 231.942C338.098 232.412 338.24 232.938 338.272 233.482Z" fill="#263238"/>
<path opacity="0.15" d="M306.166 285.694C306.076 285.254 306.06 284.798 306.119 284.348C307.84 270.451 310.235 256.641 313.293 242.976C313.643 241.684 314.229 240.476 315.016 239.423C316.777 237.524 314.074 255.65 312.136 266.64C310.199 277.629 308.141 288.49 306.706 286.923C306.647 286.863 306.597 286.794 306.556 286.718C306.393 286.393 306.262 286.05 306.166 285.694Z" fill="black"/>
<g opacity="0.15">
<path d="M333.764 271.05C333.764 271.05 333.434 271.183 332.858 271.463C332.282 271.744 331.482 272.116 330.469 272.571C328.532 273.483 325.944 274.662 323.336 275.707C320.728 276.751 318.069 277.715 316.053 278.387C315.04 278.721 314.205 279.04 313.603 279.22C313.001 279.401 312.668 279.545 312.668 279.545C312.668 279.545 313.032 279.537 313.643 279.49C314.255 279.443 315.144 279.373 316.197 279.188C317.397 278.994 318.588 278.734 319.767 278.409C320.416 278.213 321.082 278.043 321.751 277.791C322.421 277.539 323.097 277.312 323.769 277.049C325.079 276.516 326.365 275.91 327.62 275.232C328.716 274.648 329.782 273.999 330.815 273.288C331.732 272.686 332.452 272.084 332.96 271.696C333.467 271.308 333.764 271.05 333.764 271.05Z" fill="black"/>
<path d="M335.02 263.929L334.114 264.342C333.557 264.638 332.738 264.995 331.725 265.449C329.786 266.373 327.2 267.54 324.59 268.597C321.98 269.653 319.325 270.594 317.309 271.265C316.296 271.6 315.461 271.918 314.859 272.099C314.257 272.279 313.924 272.423 313.924 272.423C313.924 272.423 314.287 272.416 314.899 272.368C315.511 272.321 316.4 272.251 317.453 272.066C318.653 271.878 319.845 271.618 321.023 271.287C321.672 271.091 322.337 270.922 323.007 270.67C323.677 270.418 324.353 270.191 325.022 269.939C326.361 269.375 327.674 268.77 328.874 268.122C329.968 267.53 331.035 266.877 332.07 266.167C332.988 265.564 333.708 264.963 334.215 264.575C334.722 264.186 335.02 263.929 335.02 263.929Z" fill="black"/>
<path d="M334.709 257.796C334.709 257.796 334.401 257.921 333.874 258.174C333.347 258.428 332.587 258.759 331.7 259.188C329.9 260.065 327.528 261.079 325.099 261.976C322.671 262.873 320.208 263.657 318.336 264.258L316.068 265.052C315.521 265.231 315.204 265.354 315.204 265.354L316.108 265.322C316.675 265.279 317.493 265.244 318.461 265.104C319.571 264.961 320.676 264.757 321.771 264.494C322.371 264.325 322.997 264.196 323.616 263.983C324.235 263.77 324.871 263.584 325.492 263.359C326.112 263.134 326.731 262.861 327.337 262.598C327.942 262.334 328.535 262.021 329.083 261.712C330.103 261.155 331.092 260.532 332.044 259.846C332.879 259.277 333.547 258.726 334.007 258.353C334.468 257.981 334.709 257.796 334.709 257.796Z" fill="black"/>
<path d="M335.336 251.065C335.336 251.065 335.031 251.179 334.527 251.424C334.023 251.67 333.278 251.98 332.416 252.389C330.72 253.236 328.358 254.193 326.016 255.034C323.675 255.874 321.268 256.584 319.456 257.16L317.266 257.885L316.436 258.18C316.436 258.18 316.744 258.234 317.307 258.154C317.869 258.075 318.645 258.092 319.587 257.972C320.529 257.851 321.62 257.697 322.785 257.437C323.36 257.288 323.93 257.161 324.566 256.975C325.202 256.789 325.783 256.604 326.402 256.391C327.021 256.178 327.582 255.919 328.186 255.667C328.79 255.415 329.325 255.116 329.877 254.843C330.859 254.327 331.812 253.746 332.729 253.101C333.539 252.551 334.172 252.006 334.618 251.655L335.336 251.065Z" fill="black"/>
<path d="M335.544 244.535L334.773 244.865L332.804 245.711C330.841 246.637 328.838 247.451 326.802 248.152C324.588 248.955 322.318 249.51 320.603 250.032C318.888 250.553 317.759 250.987 317.759 250.987C318.747 250.995 319.737 250.947 320.724 250.841C322.901 250.643 325.06 250.199 327.165 249.517C327.739 249.308 328.334 249.102 328.86 248.861C329.385 248.619 329.948 248.348 330.464 248.093C331.377 247.62 332.262 247.087 333.115 246.495C333.968 245.908 334.78 245.253 335.544 244.535Z" fill="black"/>
<path d="M334.487 238.092C334.487 238.092 333.485 238.488 332.109 239.141C330.732 239.794 328.805 240.588 326.878 241.252C324.952 241.915 323.008 242.551 321.526 243.054C320.045 243.557 319.064 243.957 319.064 243.957C319.928 243.991 320.794 243.961 321.658 243.865C323.555 243.664 325.434 243.247 327.262 242.621C327.758 242.422 328.251 242.234 328.738 242.022C329.226 241.809 329.674 241.566 330.121 241.334C330.931 240.907 331.71 240.413 332.454 239.859C333.17 239.325 333.85 238.735 334.487 238.092Z" fill="black"/>
</g>
<path d="M339.884 286.6C346.211 289.029 352.056 293.821 357.564 300.213C357.913 300.569 358.173 301.016 358.319 301.514C358.465 302.012 358.494 302.545 358.402 303.065C358.31 303.585 358.101 304.077 357.793 304.494C357.486 304.912 357.089 305.244 356.639 305.459C347.761 310.305 338.437 314.072 328.843 316.688C326.381 317.237 323.847 316.713 321.796 315.231C316.842 311.233 312.486 306.441 308.872 301.012C308.582 300.573 308.388 300.066 308.305 299.529C308.221 298.991 308.251 298.437 308.391 297.906C308.53 297.376 308.777 296.882 309.113 296.462C309.449 296.042 309.865 295.706 310.331 295.478C317.315 291.616 324.643 288.573 332.187 286.401C334.748 285.783 337.391 285.852 339.884 286.6Z" fill="#263238"/>
<g opacity="0.2">
<path d="M353.601 302.225C353.601 302.225 353.166 302.267 352.421 302.387C351.677 302.506 350.607 302.664 349.338 302.954C346.229 303.641 343.164 304.577 340.17 305.755C337.178 306.942 334.274 308.391 331.488 310.086C330.223 310.86 328.994 311.703 327.807 312.613L331.807 310.823C334.19 309.751 337.382 308.379 340.6 307.108C343.818 305.837 347.052 304.664 349.506 303.747L352.472 302.658L353.601 302.225Z" fill="black"/>
<path d="M348.037 297.208C348.037 297.208 347.613 297.252 346.857 297.37C346.102 297.488 345.043 297.647 343.774 297.937C340.667 298.62 337.605 299.557 334.616 300.74C331.623 301.924 328.719 303.373 325.934 305.071C324.651 305.834 323.405 306.671 322.202 307.577L326.19 305.797C328.573 304.725 331.767 303.342 334.985 302.07C338.203 300.799 341.447 299.628 343.899 298.723L346.866 297.634C347.635 297.376 348.037 297.208 348.037 297.208Z" fill="black"/>
<path d="M343.252 292.937C343.252 292.937 342.828 292.982 342.125 293.109C341.423 293.236 340.3 293.384 339.032 293.674C335.925 294.362 332.864 295.299 329.873 296.477C326.88 297.661 323.976 299.11 321.191 300.808C319.923 301.575 318.691 302.414 317.502 303.322L321.49 301.542C323.872 300.469 327.064 299.098 330.282 297.826C333.501 296.555 336.745 295.384 339.199 294.467L342.165 293.379C342.85 293.105 343.252 292.937 343.252 292.937Z" fill="black"/>
<path d="M337.882 289.185C337.882 289.185 337.481 289.221 336.763 289.31C336.046 289.398 335.097 289.553 333.933 289.814C331.074 290.425 328.258 291.278 325.51 292.364C322.762 293.451 320.098 294.787 317.546 296.357C316.389 297.076 315.267 297.858 314.182 298.701C314.182 298.701 314.559 298.552 315.203 298.26L317.865 297.094C320.064 296.132 322.985 294.868 325.936 293.741C328.888 292.613 331.822 291.459 334.104 290.644L336.808 289.616C337.513 289.347 337.882 289.185 337.882 289.185Z" fill="black"/>
</g>
<path d="M226.819 316.298L239.428 318.247L260.674 309.707C262.629 309.048 264.678 308.835 266.689 309.081C268.701 309.326 270.63 310.026 272.355 311.134L293.503 326.6L309.434 329.051L307.655 339.137C307.451 340.295 306.513 341.323 304.839 341.983L258.653 360.788C256.811 361.428 254.856 361.506 253.006 361.011C251.156 360.516 249.485 359.468 248.18 357.986L226.38 330.608C225.891 330.066 225.527 329.407 225.315 328.68C225.103 327.954 225.048 327.179 225.156 326.417L226.819 316.298Z" fill="#37474F"/>
<path d="M306.573 331.901L260.391 350.683C258.55 351.325 256.594 351.404 254.744 350.911C252.894 350.419 251.222 349.373 249.916 347.892L228.115 320.515C225.753 317.555 226.65 314.024 230.109 312.628L262.457 299.598C264.412 298.938 266.461 298.725 268.473 298.973C270.484 299.221 272.413 299.924 274.135 301.036L307.459 325.383C310.407 327.574 310.024 330.492 306.573 331.901Z" fill="#455A64"/>
<path d="M226.817 316.31L225.043 326.373C224.934 327.137 224.987 327.914 225.199 328.642C225.411 329.371 225.775 330.033 226.265 330.576L248.067 357.942C249.31 359.417 250.934 360.455 252.739 360.927L254.518 350.841C252.712 350.369 251.088 349.331 249.846 347.856L228.045 320.479C227.562 319.937 227.201 319.281 226.988 318.56C226.775 317.838 226.717 317.069 226.817 316.31Z" fill="#263238"/>
<path d="M223.334 312.615C223.19 313.051 223.157 313.518 223.238 313.965C223.32 314.413 223.513 314.824 223.796 315.156L233.258 323.69C232.957 323.367 232.75 322.954 232.663 322.5C232.575 322.047 232.611 321.572 232.766 321.132L244.995 265.212C245.339 263.95 245.937 262.779 246.746 261.785C247.556 260.791 248.555 260 249.671 259.47L277.389 248.191C277.82 247.974 278.293 247.881 278.761 247.922C279.229 247.963 279.676 248.135 280.057 248.422L270.712 239.969C270.328 239.664 269.875 239.477 269.396 239.427C268.918 239.376 268.432 239.463 267.988 239.68L240.281 250.961C239.164 251.493 238.164 252.286 237.354 253.281C236.545 254.277 235.946 255.45 235.603 256.715L223.334 312.615Z" fill="#263238"/>
<path d="M277.348 248.172L249.63 259.451C248.514 259.981 247.515 260.772 246.706 261.766C245.897 262.76 245.298 263.931 244.955 265.193L232.724 321.124C232.22 323.423 233.484 324.649 235.541 323.806L275.046 307.752C276.121 307.25 277.057 306.441 277.749 305.413C278.441 304.384 278.863 303.177 278.969 301.924L280.963 250.934C281.04 250.435 280.988 249.927 280.813 249.466C280.638 249.005 280.347 248.609 279.973 248.323C279.598 248.037 279.154 247.871 278.691 247.844C278.228 247.817 277.763 247.931 277.348 248.172Z" fill="#37474F"/>
<path d="M237.295 253.276L246.687 261.774C247.488 260.758 248.497 259.961 249.63 259.451L277.348 248.172C277.78 247.955 278.253 247.862 278.721 247.903C279.189 247.944 279.635 248.116 280.016 248.403L270.671 239.95C270.288 239.645 269.834 239.458 269.356 239.408C268.878 239.357 268.392 239.444 267.947 239.66L240.24 250.942C239.107 251.458 238.097 252.258 237.295 253.276Z" fill="#455A64"/>
<path d="M243.102 245.846L245.573 231.835C247.353 221.737 255.366 210.876 263.479 207.53C267.201 206.014 270.27 206.34 272.362 208.153L279.516 214.668L274.629 221.484L272.448 233.851C272.161 235.117 271.603 236.3 270.82 237.303C270.037 238.306 269.051 239.102 267.943 239.624L258.991 243.311L250.726 254.856L243.649 248.402C243.355 248.074 243.15 247.664 243.054 247.215C242.957 246.766 242.974 246.293 243.102 245.846Z" fill="#263238"/>
<path d="M259.949 227.552L250.737 219.217C254.183 213.855 258.802 209.488 263.469 207.588C267.191 206.071 270.259 206.397 272.352 208.211L279.506 214.726L274.619 221.542L274.19 223.974L259.949 227.552Z" fill="#455A64"/>
<path d="M250.14 252.269L252.609 238.269C254.387 228.183 262.402 217.31 270.505 214.023C278.608 210.735 283.736 216.236 281.957 226.322L279.485 240.346C279.197 241.611 278.639 242.794 277.856 243.797C277.073 244.801 276.087 245.596 274.979 246.118L253.145 255.008C251.068 255.836 249.725 254.62 250.14 252.269Z" fill="#37474F"/>
<path d="M274.49 259.966C275.37 272.936 274.579 286.029 272.137 298.869C271.823 300.172 271.272 301.401 270.516 302.482C269.76 303.563 268.815 304.474 267.738 305.162C260.696 309.044 253.288 312.049 245.661 314.116C245.217 314.288 244.742 314.329 244.286 314.233C243.829 314.138 243.409 313.91 243.068 313.573C242.728 313.237 242.48 312.805 242.351 312.322C242.223 311.84 242.217 311.325 242.336 310.832C244.052 296.938 246.446 283.132 249.509 269.471C250.264 266.855 251.914 264.627 254.115 263.25C259.268 260.439 264.672 258.237 270.232 256.684C270.724 256.536 271.236 256.507 271.733 256.598C272.23 256.69 272.698 256.9 273.105 257.214C273.512 257.527 273.847 257.937 274.087 258.413C274.326 258.888 274.464 259.419 274.49 259.966Z" fill="#263238"/>
<path opacity="0.15" d="M242.384 312.177C242.298 311.738 242.285 311.283 242.347 310.834C244.062 296.94 246.457 283.133 249.519 269.473C249.865 268.176 250.452 266.962 251.245 265.908C253.005 264.01 250.313 282.138 248.363 293.137C246.412 304.136 244.369 314.975 242.943 313.422L242.782 313.215C242.623 312.882 242.49 312.535 242.384 312.177Z" fill="black"/>
<g opacity="0.15">
<path d="M269.982 297.534L269.086 297.949C268.519 298.243 267.699 298.6 266.698 299.056C264.758 299.98 262.183 301.15 259.562 302.204C256.942 303.258 254.286 304.199 252.269 304.882C251.256 305.217 250.423 305.523 249.821 305.704L248.897 306.03L249.872 305.975C250.485 305.916 251.373 305.858 252.423 305.685C253.621 305.49 254.81 305.225 255.985 304.892C256.633 304.696 257.31 304.529 257.967 304.287C258.624 304.044 259.315 303.796 259.984 303.544C261.323 302.98 262.646 302.377 263.836 301.728C264.934 301.136 266.004 300.484 267.043 299.774C267.95 299.169 268.668 298.58 269.177 298.18C269.686 297.78 269.982 297.534 269.982 297.534Z" fill="black"/>
<path d="M271.238 290.412L270.342 290.827C269.775 291.121 268.955 291.478 267.953 291.934C266.014 292.858 263.439 294.028 260.818 295.082C258.198 296.136 255.542 297.077 253.524 297.76C252.511 298.095 251.679 298.402 251.076 298.582L250.152 298.909C250.152 298.909 250.493 298.969 251.125 298.865C251.758 298.762 252.626 298.748 253.679 298.563C254.877 298.368 256.065 298.103 257.24 297.771C257.889 297.575 258.566 297.407 259.223 297.165C259.88 296.923 260.57 296.674 261.24 296.422C262.579 295.858 263.902 295.256 265.092 294.606C266.281 293.956 267.385 293.291 268.297 292.664C269.208 292.036 269.924 291.458 270.431 291.07C270.938 290.682 271.238 290.412 271.238 290.412Z" fill="black"/>
<path d="M270.924 284.291L270.092 284.658C269.573 284.925 268.804 285.243 267.917 285.672C266.118 286.548 263.745 287.563 261.317 288.46C258.889 289.357 256.425 290.141 254.554 290.742L252.286 291.536C251.739 291.714 251.432 291.839 251.432 291.839C251.432 291.839 251.751 291.895 252.326 291.806C252.901 291.716 253.711 291.728 254.677 291.599C255.642 291.471 256.786 291.267 257.987 290.989C258.585 290.832 259.213 290.692 259.829 290.49C260.446 290.288 261.086 290.079 261.718 289.856C262.349 289.633 262.955 289.37 263.552 289.093C264.149 288.816 264.751 288.516 265.299 288.207C266.314 287.669 267.299 287.065 268.25 286.399C269.095 285.832 269.752 285.279 270.213 284.906C270.673 284.534 270.924 284.291 270.924 284.291Z" fill="black"/>
<path d="M271.596 277.556C271.596 277.556 271.291 277.67 270.787 277.915C270.283 278.161 269.591 278.48 268.687 278.882C266.954 279.687 264.659 280.703 262.308 281.53C259.958 282.358 257.56 283.081 255.757 283.671L253.569 284.383L252.738 284.679C252.738 284.679 253.047 284.733 253.597 284.663C254.146 284.593 254.937 284.589 255.879 284.468C256.952 284.352 258.019 284.173 259.077 283.934C259.662 283.786 260.222 283.658 260.869 283.474C261.516 283.289 262.086 283.103 262.692 282.9C263.298 282.696 263.872 282.427 264.478 282.164C265.084 281.9 265.67 281.622 266.168 281.351C267.15 280.832 268.104 280.246 269.021 279.598C269.831 279.048 270.462 278.515 270.91 278.152C271.358 277.789 271.596 277.556 271.596 277.556Z" fill="black"/>
<path d="M271.735 271.05L270.974 271.381L268.984 272.284C267.022 273.208 265.02 274.018 262.984 274.713C260.77 275.516 258.5 276.071 256.796 276.594C255.092 277.118 253.95 277.561 253.95 277.561C253.95 277.561 255.142 277.58 256.906 277.402C259.083 277.206 261.242 276.762 263.347 276.078C263.921 275.869 264.516 275.663 265.042 275.422C265.567 275.18 266.13 274.909 266.647 274.654C267.573 274.169 268.469 273.617 269.329 273.001C270.173 272.416 270.978 271.764 271.735 271.05Z" fill="black"/>
<path d="M270.652 264.566C270.652 264.566 269.66 264.965 268.273 265.616C266.886 266.267 264.969 267.063 263.051 267.739C261.133 268.416 259.172 269.026 257.691 269.529C256.209 270.031 255.237 270.445 255.237 270.445C256.098 270.469 256.962 270.434 257.822 270.34C259.721 270.152 261.601 269.734 263.426 269.095C263.92 268.908 264.416 268.708 264.903 268.496C265.374 268.299 265.835 268.073 266.283 267.82C267.092 267.385 267.872 266.888 268.618 266.333C269.338 265.804 270.018 265.213 270.652 264.566Z" fill="black"/>
</g>
<path d="M276.102 313.084C282.438 315.527 288.274 320.305 293.791 326.71C294.14 327.065 294.4 327.511 294.546 328.008C294.693 328.505 294.721 329.037 294.63 329.557C294.538 330.076 294.329 330.566 294.021 330.983C293.714 331.4 293.317 331.731 292.868 331.944C283.985 336.788 274.654 340.546 265.054 343.147C262.592 343.695 260.058 343.171 258.007 341.689C253.054 337.69 248.699 332.898 245.083 327.471C244.795 327.031 244.603 326.524 244.521 325.987C244.438 325.45 244.468 324.897 244.608 324.367C244.747 323.837 244.993 323.344 245.328 322.923C245.662 322.503 246.077 322.166 246.542 321.937C253.532 318.08 260.863 315.037 268.409 312.862C270.97 312.262 273.61 312.338 276.102 313.084Z" fill="#263238"/>
<g opacity="0.2">
<path d="M289.817 328.72C289.817 328.72 289.382 328.763 288.692 328.88C288.003 328.997 286.876 329.168 285.609 329.447C282.501 330.132 279.438 331.072 276.449 332.261C273.455 333.446 270.549 334.89 267.758 336.579C265.491 337.994 264.078 339.106 264.078 339.106L268.078 337.316C270.461 336.244 273.653 334.872 276.871 333.601C280.089 332.33 283.333 331.159 285.787 330.242L288.743 329.151C289.415 328.888 289.817 328.72 289.817 328.72Z" fill="black"/>
<path d="M284.298 323.699L283.118 323.861C282.373 323.981 281.303 324.138 280.035 324.428C276.924 325.113 273.859 326.049 270.866 327.229C267.874 328.416 264.97 329.865 262.184 331.561C260.919 332.334 259.69 333.178 258.503 334.088L262.503 332.298C264.886 331.225 268.067 329.852 271.296 328.582C274.525 327.313 277.748 326.138 280.202 325.222L283.126 324.125L284.298 323.699Z" fill="black"/>
<path d="M279.48 319.423L278.3 319.585C277.553 319.716 276.484 319.874 275.217 320.152C272.105 320.836 269.039 321.776 266.046 322.964C263.056 324.148 260.153 325.593 257.366 327.284C255.099 328.7 253.632 329.802 253.632 329.802L257.633 328.012C260.015 326.94 263.207 325.568 266.426 324.297C269.644 323.026 272.877 321.853 275.331 320.936L278.298 319.847C279.065 319.6 279.48 319.423 279.48 319.423Z" fill="black"/>
<path d="M274.1 315.668L272.981 315.793C272.291 315.911 271.302 316.047 270.14 316.295C267.284 316.907 264.472 317.761 261.727 318.848C258.98 319.935 256.315 321.271 253.763 322.84C251.678 324.156 250.389 325.183 250.389 325.183L251.408 324.753L254.07 323.587C256.271 322.614 259.189 321.361 262.141 320.234C265.092 319.107 268.029 317.941 270.364 317.135L273.079 316.109C273.731 315.83 274.1 315.668 274.1 315.668Z" fill="black"/>
</g>
<path d="M354.091 279.733C359.049 284.452 362.885 288.388 369.212 294.984C376.084 302.165 381.765 308.134 383.304 313.647C384.633 318.55 383.557 324.652 379.561 331.578C375.566 338.503 357.07 361.485 357.07 361.485L349.453 350.136C349.453 350.136 354.979 334.096 357.536 329.855C358.403 328.184 359.599 326.735 361.037 325.613L337.472 310.544L334.216 294.735C336.999 286.916 346.424 280.673 354.091 279.733Z" fill="#263238"/>
<path d="M310.239 279.952C309.191 285.353 308.495 290.816 308.157 296.301C308.013 302.341 308.436 308.028 315.816 316.302C322.893 324.248 342.224 337.889 342.843 339.98C342.073 347.581 342.613 351.796 343.907 356.645C346.321 365.655 349.111 376.141 349.111 376.141C353.928 377.934 360.555 377.359 363.732 375.137C363.732 375.137 363.798 361.454 363.605 352.286C363.28 336.587 364.328 329.214 362.008 325.08C359.688 320.945 346.05 303.627 346.05 303.627C346.05 303.627 349.062 302.344 352.603 292.461C354.295 287.721 354.86 279.665 354.86 279.665C354.86 279.665 324.876 286.378 310.239 279.952Z" fill="#263238"/>
<path d="M349.633 227.641C355.22 229.665 357.17 233.662 361.503 244.289C365.943 255.185 366.864 257.735 366.864 257.735L387.609 267.84L384.591 276.932C384.591 276.932 371.55 274.513 366.681 273.392C361.811 272.27 358.446 272.322 355.526 266.494C352.757 260.99 347.431 248.959 347.431 248.959L349.633 227.641Z" fill="#F99417"/>
<path d="M338.241 225.632C333.279 225.163 324.974 228.164 318.944 230.456C314.719 232.959 312.861 243.998 312.054 252.488C310.724 266.689 310.216 269.692 309.027 282.903C308.26 290.803 308.075 292.908 308.075 292.908C322.423 298.112 344.356 296.069 354.817 279.658C354.817 279.658 353.389 270.714 355.37 246.108C356.385 233.571 351.825 229.639 349.629 227.664C346.711 226.302 342.039 225.991 338.241 225.632Z" fill="#FAFAFA"/>
<path d="M330.677 220.143C330.811 216.585 328.359 212.391 327.522 209.116C326.685 205.84 326.311 203.541 327.014 200.859C327.417 199.259 328.746 197.26 329.961 197.021C329.896 195.997 330.024 194.964 330.336 193.983C330.649 193.003 331.14 192.095 331.78 191.315C332.419 190.535 333.195 189.899 334.059 189.446C334.923 188.992 335.858 188.73 336.807 188.676C337.882 188.648 338.955 188.542 340.021 188.359C341.315 188.05 341.786 187.058 342.92 186.351C344.741 185.227 347.744 185.613 348.204 188.166C349.46 187.514 350.872 187.341 352.205 187.678C353.086 187.861 353.878 188.358 354.457 189.09C354.739 189.459 354.92 189.908 354.98 190.388C355.041 190.868 354.978 191.361 354.799 191.813C355.684 191.774 356.555 192 357.316 192.464C358.077 192.929 358.7 193.616 359.116 194.448C359.508 195.295 359.641 196.261 359.495 197.21C359.349 198.16 358.933 199.044 358.304 199.738C358.719 200.275 358.971 200.94 359.026 201.646C359.081 202.352 358.937 203.066 358.613 203.693C358.288 204.321 357.799 204.833 357.209 205.162C356.619 205.491 355.956 205.622 355.307 205.537C355.626 205.594 354.541 207.707 354.404 207.862C353.805 208.545 353.05 209.044 352.219 209.303C349.644 209.871 347.025 210.11 344.417 210.017L341.298 210.1C341.128 210.07 340.22 209.993 340.064 210.133L330.677 220.143Z" fill="#263238"/>
<path d="M327.712 214.94C328.17 215.484 328.785 215.843 329.462 215.962C330.139 216.082 330.84 215.954 331.456 215.6L329.185 227.737C330.975 232.446 336.683 234.038 339.861 233.798C343.975 233.485 343.725 230.05 342.236 227.984L342.702 226.025C343.803 226.256 344.919 226.409 346.043 226.482C348.6 226.599 351.551 224.23 352.598 222.086C354.153 218.46 355.018 214.55 355.139 210.594C355.156 209.627 355.293 208.664 355.546 207.729C356.131 205.701 356.271 203.566 355.954 201.496C353.694 198.579 346.66 196.61 340.025 199.345C339.966 203.286 338.915 205.954 336.092 206.913C336.006 207.961 335.621 210.579 334.082 210.225C332.955 210.026 333.192 208.432 332.307 206.855C331.423 205.278 328.803 204.398 327.382 206.178C326.449 207.466 325.969 209.063 326.03 210.674C326.091 212.284 326.688 213.8 327.712 214.94Z" fill="#B16668"/>
<path d="M342.71 225.978C338.879 224.694 335.99 223.599 334.537 220.143C333.934 218.449 333.562 216.662 333.433 214.838C333.089 216.992 333.146 219.187 333.6 221.291C334.204 223.464 336.361 225.599 342.395 227.391L342.71 225.978Z" fill="#9A4A4D"/>
<path d="M344.577 208.923C344.511 209.264 344.324 209.567 344.057 209.766C343.789 209.964 343.464 210.043 343.15 209.985C342.908 209.944 342.684 209.826 342.508 209.644C342.332 209.463 342.212 209.227 342.163 208.967C342.114 208.707 342.138 208.435 342.233 208.186C342.328 207.936 342.488 207.721 342.694 207.568C342.9 207.415 343.141 207.33 343.388 207.326C343.634 207.321 343.874 207.397 344.077 207.542C344.279 207.688 344.435 207.898 344.524 208.144C344.613 208.39 344.632 208.661 344.577 208.923Z" fill="#263238"/>
<path d="M344.273 204.858L341.657 205.889C341.545 205.506 341.575 205.088 341.742 204.72C341.91 204.353 342.2 204.067 342.552 203.921C342.725 203.855 342.908 203.826 343.089 203.838C343.27 203.849 343.447 203.9 343.607 203.987C343.768 204.075 343.91 204.197 344.024 204.346C344.139 204.496 344.223 204.67 344.273 204.858Z" fill="#263238"/>
<path d="M353.953 207.185L351.626 205.581C351.714 205.406 351.835 205.252 351.98 205.129C352.126 205.005 352.292 204.914 352.469 204.863C352.646 204.811 352.83 204.799 353.009 204.828C353.188 204.857 353.359 204.925 353.51 205.03C353.832 205.246 354.059 205.593 354.142 205.996C354.225 206.4 354.157 206.827 353.953 207.185Z" fill="#263238"/>
<path d="M353.376 210.081C353.311 210.421 353.124 210.724 352.857 210.923C352.589 211.122 352.264 211.201 351.95 211.142C351.639 211.066 351.371 210.859 351.205 210.566C351.039 210.273 350.988 209.918 351.063 209.577C351.086 209.399 351.143 209.227 351.23 209.072C351.316 208.917 351.431 208.782 351.568 208.677C351.704 208.571 351.858 208.496 352.02 208.458C352.183 208.419 352.35 208.417 352.511 208.452C352.672 208.487 352.823 208.558 352.956 208.661C353.088 208.764 353.199 208.896 353.28 209.049C353.362 209.202 353.412 209.373 353.429 209.551C353.445 209.728 353.428 209.909 353.376 210.081Z" fill="#263238"/>
<path d="M351.387 215.33L347.182 216.415L347.574 207.971C349.136 207.697 350.236 211.843 351.387 215.33Z" fill="#9A4A4D"/>
<path d="M342.086 216.579L346.498 218.551C346.381 218.876 346.205 219.175 345.981 219.429C345.757 219.682 345.49 219.886 345.194 220.028C344.899 220.17 344.583 220.247 344.263 220.254C343.944 220.261 343.628 220.199 343.335 220.071C342.746 219.789 342.288 219.268 342.055 218.617C341.822 217.966 341.834 217.236 342.086 216.579Z" fill="#9A4A4D"/>
<path d="M342.501 217.524C342.314 217.467 342.121 217.433 341.926 217.422C341.882 217.976 341.996 218.527 342.252 218.999C342.508 219.471 342.894 219.842 343.358 220.063C343.602 220.158 343.862 220.204 344.124 220.198C344.23 219.601 344.12 218.99 343.818 218.492C343.515 217.994 343.043 217.647 342.501 217.524Z" fill="#FFA8A7"/>
<path d="M294.113 300.129C293.762 295.9 292.732 295.957 296.513 294.666C301.531 292.948 306.702 291.304 307.299 292.58C307.897 293.855 308.527 299.053 308.508 301.151C308.489 303.249 301.271 303.755 298.169 303.805C293.811 303.956 294.301 302.729 294.113 300.129Z" fill="#F99417"/>
<path d="M348.836 227.059C348.98 240.552 343.57 281.806 305.28 293.704L306.576 300.846C306.576 300.846 329.055 300.87 342.128 295.521C355.2 290.173 357.78 281.386 357.78 281.386L355.277 277.363C355.277 277.363 348.237 292.097 316.001 294.854C334.599 287.28 353.537 263.409 353.069 228.557L348.836 227.059Z" fill="black"/>
<path d="M391.161 276.801C391.407 271.985 390.085 268.038 387.294 265.516C385.858 264.214 384.116 263.359 382.248 263.038C379.317 262.623 376.313 263.052 373.54 264.285C363.166 268.509 353.412 281.034 351.343 292.764L351.311 292.949L357.851 290.318C358.483 288.416 359.288 286.582 360.253 284.843C360.777 283.921 361.323 283.002 361.941 282.108C365.494 276.764 370.481 272.116 375.411 270.155C377.232 269.313 379.213 269.003 381.151 269.257C382.037 269.397 382.868 269.782 383.564 270.375C383.913 270.711 384.214 271.102 384.457 271.535C384.987 272.498 385.302 273.587 385.376 274.718C385.504 276.147 385.429 277.596 385.156 279.013L385.105 279.303L391.161 276.801Z" fill="#455A64"/>
<path d="M377.105 282.501L366.788 286.652L365.6 287.171C365.685 286.908 365.786 286.65 365.9 286.4C366.324 285.407 366.858 284.47 367.489 283.611C368.74 281.808 370.415 280.398 372.331 279.534C372.907 279.244 373.533 279.101 374.161 279.116C374.788 279.131 375.399 279.305 375.946 279.622C376.344 279.956 376.658 280.393 376.86 280.895C377.062 281.397 377.146 281.948 377.105 282.501Z" fill="#455A64"/>
<path d="M388.349 271.851L385.384 274.672L377.213 282.449L377.106 282.561C377.114 282.543 377.118 282.523 377.116 282.503L366.799 286.654L365.868 286.394L360.235 284.816L357.726 284.123L358.507 281.12L361.924 282.081L367.446 283.604L370.75 284.521L375.903 279.615L384.479 271.468L386.52 269.535L388.349 271.851Z" fill="#455A64"/>
<path d="M390.597 271.042C390.96 272.718 390.965 273.495 389.373 274.814C388.194 275.657 386.843 276.163 385.451 276.283L385.384 274.672C385.384 274.672 383.49 275.771 383.208 276.748C383.007 277.453 383.377 277.971 383.216 278.385C382.972 278.799 382.822 279.268 382.777 279.752L394.677 275.522C394.677 275.522 394.434 273.414 394.208 272.335C393.981 271.256 392.567 268.332 391.502 267.715C390.645 267.336 389.714 267.172 388.779 267.235C389.592 268.37 390.208 269.66 390.597 271.042Z" fill="#9A4A4D"/>
<path d="M340.856 282.832C342.335 283.646 343.979 284.075 345.658 284.084C346.979 284.055 350.172 282.301 352.084 282.161C353.995 282.02 355.266 281.898 355.266 281.898L353.704 285.097C354.403 285.802 355.267 286.288 356.209 286.506C358.108 287.115 359.997 285.299 359.997 285.299L360.979 283.586C360.979 283.586 361.479 284.355 362.031 285.145C362.389 285.875 362.546 286.705 362.486 287.541C362.486 287.541 349.321 292.169 341.713 295.448C339.851 295.12 338.043 294.18 336.525 293.769L340.856 282.832Z" fill="#B16668"/>
<path d="M318.944 230.456C309.817 234.267 308.856 238.719 307.838 250.527C306.737 262.989 306.489 275.16 306.981 278.709C307.238 280.486 306.859 283.07 311.837 285.07C318.874 287.887 336.742 294.345 336.742 294.345C340.217 292.175 342.035 287.338 341.57 282.635L322.219 271.844L323.436 252.501C323.436 252.501 325.45 234.982 318.944 230.456Z" fill="#F99417"/>
<path d="M313.455 334.667C311.497 331.098 310.041 329.647 300.82 321.49C292.353 314.027 282.017 306.903 282.017 306.903L269.503 320.219L279.264 331.719L294.518 343.483C292.6 345.423 291.008 347.71 289.818 350.236C289.158 351.612 282.979 366.94 282.979 366.94L290.568 377.949C290.568 377.949 303.906 358.594 309.824 349.107C315.361 340.34 314.185 336.002 313.455 334.667Z" fill="#FFA8A7"/>
<path d="M285.986 301C288.428 303.819 291.189 306.073 297.795 312.336C303.733 317.968 313.351 327.425 314.903 332.928C316.283 337.852 314.945 342.201 310.95 349.126C306.954 356.051 289.819 379.525 289.819 379.525L282.202 368.176C282.202 368.176 287.728 352.136 290.286 347.894C291.153 346.224 292.349 344.774 293.786 343.652L270.266 328.64L267.011 312.83C269.791 304.963 278.319 301.941 285.986 301Z" fill="#37474F"/>
<path d="M289.862 379.532L282.245 368.183C282.245 368.183 287.771 352.143 290.328 347.902C290.977 346.789 291.73 345.749 292.575 344.8C294.343 348.085 295.391 349.917 295.622 357.623C295.742 361.107 295.693 366.615 295.603 371.602C292.33 376.17 289.862 379.532 289.862 379.532Z" fill="#263238"/>
<path d="M281.079 311.848C280.593 318.091 279.787 322.784 279.787 322.784L291.639 342.271L270.266 328.64L281.079 311.848Z" fill="#263238"/>
<path d="M294.257 316.978C297.117 319.416 303.439 327.098 304.831 328.908C306.339 330.752 307.687 332.744 308.859 334.86C309.298 335.664 309.643 336.527 309.887 337.429C309.988 337.847 310.03 338.281 310.011 338.716C309.962 339.177 309.882 339.633 309.77 340.083C309.203 341.966 308.477 343.792 307.601 345.539C306.749 347.323 305.814 349.08 304.871 350.824C302.962 354.309 300.983 357.757 298.973 361.199C301.37 358.046 303.602 354.752 305.658 351.333C306.694 349.629 307.66 347.878 308.58 346.082C309.524 344.269 310.294 342.36 310.879 340.386C311.015 339.861 311.109 339.327 311.161 338.788C311.198 338.216 311.143 337.645 310.998 337.099C310.727 336.089 310.324 335.129 309.8 334.249C308.584 332.126 307.188 330.134 305.63 328.296C303.107 325.189 297.388 318.998 294.257 316.978Z" fill="#263238"/>
<path d="M245.437 299.092C243.196 303.495 241.719 308.288 241.081 313.225C240.585 318.714 239.964 324.908 248.61 334.337C255.794 342.171 275.018 355.925 275.626 358.014C274.867 365.617 275.407 369.831 276.699 374.692L281.905 394.177C286.722 395.969 291.427 395.533 294.613 393.265C294.613 393.265 294.462 379.066 294.269 369.898C293.945 354.199 294.207 349.35 291.888 345.216C289.568 341.082 288.747 339.767 288.747 339.767L277.692 323.036C279.211 319.435 280.349 315.67 281.085 311.814C281.718 307.95 281.878 304.028 281.563 300.149C281.563 300.149 260.081 305.543 245.437 299.092Z" fill="#37474F"/>
<path d="M250.637 319.113L250.567 318.826C248.305 313.926 249.578 309.565 251.242 303.865C251.52 302.911 251.808 301.899 252.1 300.864C252.28 300.932 252.464 300.989 252.651 301.033C252.368 302.081 252.071 303.08 251.791 304.045C250.205 309.497 248.994 313.689 251.001 318.294C255.164 316.449 255.102 309.465 255.062 305.147C255.055 304.446 255.054 303.825 255.062 303.285L255.644 303.28C255.629 303.803 255.631 304.472 255.647 305.131C255.689 309.556 255.775 316.843 251.26 318.877C251.647 319.667 252.094 320.421 252.595 321.13C255.338 325.04 262.428 333.407 268.681 340.802C273.618 346.639 277.884 351.678 278.797 353.092C279.942 354.87 280.144 359.945 280.404 366.366C280.576 371.614 285.423 391.704 286.845 395.083L286.154 394.961C284.671 391.369 280.041 371.663 279.831 366.385C279.575 360.37 279.378 355.081 278.319 353.438C277.46 352.092 273.176 347.027 268.248 341.203C261.996 333.808 254.897 325.428 252.135 321.502C251.596 320.738 251.116 319.927 250.698 319.076L250.637 319.113Z" fill="#263238"/>
<path d="M261.753 305.766C261.343 307.755 261.202 309.79 261.335 311.806C261.451 313.83 261.752 315.83 262.234 317.779C262.716 319.726 263.371 321.613 264.191 323.413C264.996 325.213 265.99 326.902 267.152 328.449C266.376 326.628 265.673 324.833 265.031 323C264.385 321.178 263.827 319.318 263.36 317.428C262.857 315.54 262.464 313.616 262.182 311.668C261.929 309.715 261.786 307.744 261.753 305.766Z" fill="#263238"/>
<path d="M260.463 305.682C259.72 307.225 259.165 308.861 258.815 310.549C258.443 312.233 258.193 313.941 258.067 315.659C257.946 317.37 257.941 319.085 258.051 320.79C258.134 322.504 258.414 324.194 258.886 325.821C258.859 324.109 258.902 322.433 258.958 320.747C259.014 319.062 259.1 317.393 259.232 315.709C259.364 314.025 259.503 312.366 259.698 310.705C259.892 309.044 260.154 307.371 260.463 305.682Z" fill="#263238"/>
<path d="M280.834 336.067C282.457 338.992 284.198 341.866 285.759 344.768C286.596 346.241 287.314 347.705 287.956 349.227C288.623 350.708 289.082 352.294 289.32 353.933C289.499 355.588 289.654 357.323 289.792 359.031L290.236 364.16C290.532 367.579 290.881 370.996 291.28 374.409C291.351 370.959 291.324 367.504 291.177 364.051C291.029 360.598 290.841 357.186 290.463 353.729C290.206 351.963 289.692 350.261 288.94 348.684C288.224 347.141 287.413 345.653 286.512 344.232C284.741 341.401 282.799 338.73 280.834 336.067Z" fill="#263238"/>
<path d="M294.542 391.115C292.509 393.002 284.181 393.897 281.309 392.209L282.06 396.783C282.06 396.783 284.036 398.015 288.97 397.834C293.905 397.653 294.689 395.571 294.689 395.571L294.542 391.115Z" fill="#263238"/>
<path d="M249.902 295.665C252.52 297.547 257.128 299.84 264.669 300.298C272.21 300.757 280.035 297.742 282.441 295.54L282.833 299.848C282.833 299.848 276.177 305.253 264.423 304.744C252.668 304.236 248.876 299.615 248.876 299.615L249.902 295.665Z" fill="#455A64"/>
<path d="M279.574 255.453C286.73 257.909 288.719 260.063 290.626 268.841C292.533 277.618 293.014 299.517 293.014 299.517L304.552 318.984L286.438 301.856L279.574 255.453Z" fill="#FFA8A7"/>
<path d="M248.386 288.651C248.669 285.534 248.457 282.403 247.759 279.395C246.776 274.517 247.774 268.986 248.017 264.933C248.365 258.917 249.462 255.803 251.343 254.774C253.142 254.201 254.969 253.749 256.813 253.422C258.735 253.283 261.857 253.117 265.734 253.025C270.447 253.092 275.107 253.894 279.571 255.405C283.159 258.837 286.148 262.94 288.4 267.529C290.524 271.593 291.453 278.395 285.893 282.991C285.881 284.182 286.497 284.482 285.494 292.783C286.42 296.361 287.719 297.951 286.468 301.814C286.468 301.814 279.386 310.32 266.059 308.961C251.017 307.503 246.909 301.071 245.514 299.715C243.687 297.948 248.105 291.921 248.386 288.651Z" fill="#F5F5F5"/>
<path d="M245.482 299.769C245.224 299.517 245.059 299.17 245.019 298.792C244.978 298.398 244.997 297.998 245.074 297.607C245.21 296.865 245.416 296.137 245.687 295.435C246.208 294.034 246.832 292.676 247.349 291.298C247.617 290.623 247.835 289.926 248.001 289.216C248.11 288.502 248.167 287.782 248.173 287.062C248.218 285.593 248.147 284.126 247.959 282.678C247.879 281.947 247.776 281.225 247.641 280.496C247.507 279.768 247.368 279.063 247.26 278.304C247.076 276.814 247.019 275.305 247.09 273.796C247.145 272.302 247.298 270.812 247.472 269.327C247.647 267.841 247.853 266.361 248.025 264.887C247.972 267.863 247.611 270.844 247.617 273.794C247.615 275.268 247.723 276.736 247.939 278.185C248.044 278.896 248.192 279.614 248.337 280.344C248.483 281.075 248.581 281.82 248.67 282.564C248.858 284.054 248.919 285.564 248.851 287.074C248.826 287.84 248.747 288.604 248.612 289.36C248.423 290.101 248.174 290.824 247.869 291.521C247.275 292.897 246.605 294.212 246.056 295.584C245.75 296.252 245.499 296.947 245.306 297.66C245.171 298.005 245.117 298.378 245.148 298.746C245.179 299.114 245.294 299.466 245.482 299.769Z" fill="#E0E0E0"/>
<path d="M278.188 283.71C279.623 276.691 278.554 273.553 277.431 270.215C277.249 269.694 277.069 269.16 276.893 268.604L276.209 268.877C276.395 269.436 276.573 269.98 276.756 270.502C277.895 273.867 278.885 276.776 277.48 283.561C276.343 289.139 275.63 299.772 275.21 308.378L275.935 308.183C276.333 299.645 277.044 289.143 278.188 283.71Z" fill="#E0E0E0"/>
<path d="M273.686 282.808C273.686 282.808 269.168 287.409 263.515 285.946C261.35 285.433 259.433 284.13 258.079 282.253C258.02 282.168 257.933 282.111 257.836 282.093C257.738 282.074 257.637 282.096 257.551 282.154C257.465 282.212 257.402 282.302 257.373 282.406C257.344 282.51 257.352 282.621 257.394 282.718C257.971 284.06 258.846 285.22 259.944 286.096C261.041 286.972 262.328 287.538 263.691 287.744C265.595 288.179 267.595 287.934 269.395 287.045C271.195 286.156 272.7 284.67 273.686 282.808Z" fill="#E0E0E0"/>
<path d="M272.522 211.728C274.618 213.088 275.475 214.075 277.727 212.06C278.988 211.296 280.461 211.092 281.828 211.494C283.195 211.896 284.344 212.871 285.026 214.207C285.517 215.094 285.984 216.239 286.919 216.344C287.44 216.436 288.167 216.11 289.153 216.117C289.885 216.154 290.585 216.425 291.165 216.894C291.745 217.364 292.18 218.012 292.416 218.758C292.474 219.697 292.333 220.644 292.004 221.527C291.879 221.968 291.868 222.434 291.972 222.874C292.077 223.314 292.292 223.71 292.596 224.019C292.756 224.149 292.942 224.238 293.14 224.279C293.338 224.319 293.544 224.311 293.741 224.254C293.939 224.197 294.123 224.093 294.281 223.95C294.439 223.807 294.566 223.628 294.652 223.427C294.807 223.668 294.914 223.941 294.97 224.23C295.025 224.52 295.027 224.82 294.975 225.113C294.923 225.407 294.819 225.688 294.668 225.941C294.517 226.194 294.322 226.414 294.095 226.588C293.632 226.904 293.114 227.111 292.577 227.195C292.041 227.28 291.497 227.24 290.982 227.078C292.864 227.66 294.251 230.245 293.01 232.307C292.464 233.225 291.467 233.778 291.122 234.804C290.691 236.065 291.45 237.357 291.591 238.671C291.664 239.521 291.478 240.381 291.06 241.12C290.643 241.859 290.017 242.437 289.279 242.765C288.099 243.238 286.752 242.917 285.585 243.439C284.418 243.962 283.486 245.457 282.399 246.459C277.1 250.946 275.166 243.381 270.244 245.235C269.586 245.547 268.957 245.928 268.365 246.373C268.113 246.556 267.852 246.725 267.585 246.88C267.346 246.977 267.123 247.12 266.929 247.302C266.744 247.513 266.52 247.678 266.271 247.785C266.023 247.892 265.757 247.938 265.493 247.92C264.983 247.886 264.482 247.769 264.008 247.574C262.402 247.174 260.977 246.209 259.951 244.829C259.668 244.319 259.421 243.784 259.213 243.231C258.829 242.156 258.123 241.259 257.206 240.68C256.132 240.12 254.758 240.32 253.841 239.489C253.207 238.764 252.839 237.81 252.802 236.799C252.776 235.786 252.579 234.793 252.222 233.867C251.96 233.353 251.567 232.933 251.088 232.657C250.609 232.38 250.064 232.257 249.515 232.303C249.928 231.154 250.697 230.187 251.686 229.569C252.355 229.218 253.04 228.904 253.738 228.63C253.968 228.531 254.186 228.401 254.387 228.243C254.606 228.07 254.804 227.869 254.976 227.642C255.322 227.159 255.589 226.616 255.763 226.038C255.834 225.829 255.893 225.616 255.941 225.401C256.22 224.256 256.294 222.967 256.581 221.776C256.8 220.817 257.223 219.921 257.816 219.16C258.41 218.4 259.156 217.796 259.995 217.399C260.75 217.102 261.561 217.042 262.294 216.802C262.842 216.658 263.355 216.376 263.788 215.978C263.963 215.794 264.13 215.597 264.315 215.415C264.482 215.24 264.625 215.04 264.738 214.821C265.141 213.93 265.674 213.112 266.316 212.401C267.173 211.597 268.234 211.1 269.348 210.979C270.462 210.858 271.573 211.12 272.522 211.728Z" fill="black"/>
<path d="M284.652 223.168C285.505 224.558 286.085 226.128 286.358 227.784C286.631 229.441 286.592 231.15 286.242 232.809C286.038 233.967 286.271 235.942 285.728 239.273C284.313 247.919 282.664 249.742 279.36 250.508C277.738 250.855 276.075 250.786 274.504 250.309L273.568 254.681C275.123 256.724 276.214 259.139 276.759 261.742C277.304 264.344 277.288 267.065 276.711 269.694C264.199 261.291 260.956 252.875 260.956 252.875L263.346 240.568C263.346 240.568 261.965 241.746 259.977 239.771C258.363 238.162 258.026 234.293 259.968 232.606C261.911 230.919 263.931 231.776 264.253 234.054C264.548 236.112 266.316 236.412 266.921 233.104C267.526 229.795 267.906 224.346 272.213 222.312C279.131 223.508 277.006 228.84 284.652 223.168Z" fill="#FFA8A7"/>
<path d="M261.159 251.788L260.967 252.877C260.967 252.877 266.669 259.04 276.739 269.723C272.082 268.46 264.972 267.421 262.659 265.235C262.161 264.765 264.027 261.894 264.027 261.894L255.831 253.583L261.159 251.788Z" fill="#E0E0E0"/>
<path d="M276.733 269.698C278.044 268.503 278.945 266.864 279.283 265.061C279.379 264.517 277.463 261.636 277.463 261.636L278.277 255.034L273.913 253.345L273.621 254.69C276.38 259.034 277.491 264.394 276.733 269.698Z" fill="#E0E0E0"/>
<path d="M273.841 240.819L277.185 242.877C277.065 243.124 276.901 243.343 276.702 243.521C276.504 243.699 276.275 243.832 276.03 243.913C275.785 243.994 275.528 244.02 275.277 243.991C275.025 243.961 274.783 243.876 274.565 243.741C274.117 243.459 273.792 242.998 273.657 242.454C273.523 241.91 273.588 241.324 273.841 240.819Z" fill="#B16668"/>
<path d="M278.281 231.56L277.263 240.073L281.335 239.681L278.281 231.56Z" fill="#F28F8F"/>
<path d="M275.2 234.229C275.128 234.49 274.986 234.725 274.792 234.902C274.598 235.079 274.362 235.192 274.113 235.224C273.864 235.257 273.614 235.209 273.395 235.086C273.175 234.963 272.997 234.77 272.882 234.534C272.767 234.297 272.721 234.026 272.75 233.756C272.778 233.486 272.881 233.23 273.043 233.019C273.206 232.808 273.421 232.653 273.662 232.573C273.903 232.493 274.159 232.492 274.396 232.571C274.708 232.671 274.967 232.901 275.117 233.211C275.268 233.521 275.298 233.887 275.2 234.229Z" fill="#263238"/>
<path d="M284.028 234.854C283.926 235.102 283.758 235.314 283.548 235.463C283.337 235.611 283.092 235.69 282.843 235.689C282.595 235.689 282.355 235.608 282.153 235.458C281.951 235.308 281.796 235.095 281.709 234.846C281.621 234.598 281.604 234.324 281.66 234.06C281.716 233.797 281.842 233.555 282.023 233.365C282.204 233.175 282.431 233.046 282.676 232.994C282.921 232.942 283.173 232.969 283.399 233.072C283.55 233.141 283.686 233.241 283.799 233.368C283.913 233.495 284.001 233.645 284.059 233.811C284.118 233.976 284.145 234.154 284.14 234.333C284.134 234.512 284.096 234.689 284.028 234.854Z" fill="#263238"/>
<path d="M285.135 231.002L282.284 229.448C282.383 229.242 282.519 229.059 282.683 228.908C282.846 228.756 283.035 228.641 283.238 228.567C283.441 228.494 283.654 228.464 283.865 228.48C284.076 228.495 284.281 228.556 284.468 228.658C284.656 228.76 284.821 228.901 284.956 229.074C285.091 229.247 285.192 229.448 285.254 229.666C285.316 229.884 285.338 230.114 285.317 230.343C285.297 230.572 285.235 230.796 285.135 231.002Z" fill="#263238"/>
<path d="M272.15 230.193L275.277 229.252C275.236 229.02 275.152 228.8 275.029 228.607C274.906 228.414 274.747 228.252 274.562 228.129C274.377 228.007 274.17 227.927 273.953 227.896C273.737 227.864 273.515 227.881 273.302 227.945C273.089 228.009 272.889 228.119 272.714 228.269C272.54 228.418 272.394 228.604 272.286 228.814C272.178 229.025 272.111 229.255 272.087 229.492C272.064 229.729 272.085 229.968 272.15 230.193Z" fill="#263238"/>
<path d="M274.525 250.312C271.792 249.58 266.784 248.124 264.801 243.261C265.018 245.08 265.726 246.775 266.837 248.133C269.174 250.432 274.282 251.69 274.282 251.69L274.525 250.312Z" fill="#F28F8F"/>
<path d="M275.385 244.005C275.471 243.514 275.377 243.012 275.122 242.607C274.867 242.203 274.472 241.928 274.022 241.842C273.889 241.795 273.749 241.77 273.608 241.769C273.591 242.161 273.672 242.547 273.842 242.887C274.011 243.228 274.263 243.511 274.571 243.706C274.814 243.876 275.093 243.979 275.385 244.005Z" fill="#F28F8F"/>
<path d="M251.335 254.82C245.259 256.626 242.411 257.605 237.984 270.83C233.557 284.055 232.377 286.891 231.187 290.717C229.053 297.349 228.991 299.189 232.579 304.156C235.226 307.706 238.061 311.084 241.071 314.274C242.354 315.54 243.514 316.944 244.532 318.466C245.614 320.233 247.315 321.345 248.052 323.385C248.334 324.151 248.484 324.978 248.812 325.728C249.454 326.936 250.269 328.022 251.228 328.948C253.146 331.208 254.655 333.841 255.681 336.718C256.112 338.1 256.86 339.333 257.857 340.302C257.996 340.42 258.155 340.509 258.326 340.564C258.922 340.669 259.022 340.101 259.078 339.657C259.322 339.816 259.546 340.008 259.745 340.229C259.969 340.506 260.28 340.684 260.622 340.73C260.87 340.699 261.105 340.585 261.294 340.405C261.483 340.224 261.617 339.985 261.677 339.722C261.833 339.212 261.865 338.656 262.05 338.164C262.474 337.332 262.832 336.464 263.122 335.571C263.413 334.524 263.502 333.429 263.381 332.357C262.871 329.031 262.464 325.927 260.526 323.113C258.587 320.3 255.92 316.331 253.924 313.591C251.929 310.852 245.537 296.722 245.537 296.722L252.787 277.559C252.787 277.559 257.349 259.773 251.335 254.82Z" fill="#FFA8A7"/>
<path d="M240.112 247.194C253.421 252.943 269.078 269.077 276.972 277.669C284.867 286.26 288.261 299.479 288.261 299.479L288.179 303.489C288.179 303.489 283.504 311.345 271.082 311.387C263.987 311.526 256.98 310.108 250.486 307.218L247.048 300.093C247.048 300.093 272.894 310.19 285.123 301.851C281.397 292.633 266.4 270.515 239.101 252.985L240.112 247.194Z" fill="black"/>
<path d="M325.662 301.513C364.587 285.452 412.008 269.468 412.096 269.472L414.484 273.343C415.303 274.693 415.978 276.142 416.497 277.662C413.815 285.846 408.537 292.7 404.766 297.42C395.137 309.456 383.539 319.468 370.588 326.927C351.033 337.878 335.046 341.901 312.782 347.443C285.949 354.139 255.752 342.163 251.847 334.705C251.847 334.705 294.728 314.303 325.662 301.513Z" fill="#455A64"/>
<path d="M251.847 334.705C253.454 333.985 303.361 314.727 327.908 304.202C351.292 294.176 406.485 271.372 412.096 269.472C407.38 270.216 364.587 285.452 325.662 301.513C294.728 314.303 265.657 327.039 251.847 334.705Z" fill="#37474F"/>
<path opacity="0.2" d="M410.05 287.104C392.083 298.419 373.303 308.086 353.915 315.999C333.548 324.276 309.186 331.825 291.41 336.977C283.913 339.131 276.103 339.341 268.621 337.59C261.14 335.839 254.201 332.177 248.375 326.905L237.415 316.973L231.785 238.251C233.612 238.841 235.484 239.271 237.382 239.536C251.47 241.555 281.374 229.383 305.926 219.385C330.479 209.386 365.677 195.056 356.805 183.175L359.332 186.69C385.191 222.711 413.215 271.83 414.484 273.343C414.712 273.789 414.919 274.232 415.13 274.651C415.614 277.004 415.381 279.485 414.466 281.727C413.551 283.97 412.003 285.855 410.05 287.104Z" fill="black"/>
<path d="M356.804 183.175C365.184 192.068 406.745 259.884 408.821 264.094L407.96 265.435C406.468 261.458 392.914 239.618 381.821 222.296C371.903 206.828 359.795 188.729 357.268 185.896L356.804 183.175Z" fill="black"/>
<path opacity="0.5" d="M136.83 216.995L237.415 316.973L231.785 238.251C220.444 234.651 222.152 235.478 205.846 220.722L176.71 194.332C174.853 192.649 172.605 191.54 170.193 191.114C167.78 190.689 165.288 190.963 162.968 191.909L139.847 201.312C138.446 201.879 137.193 202.826 136.213 204.061C135.232 205.295 134.557 206.775 134.253 208.355C133.949 209.935 134.026 211.562 134.478 213.077C134.93 214.591 135.74 215.941 136.83 216.995Z" fill="black"/>
<g opacity="0.2">
<path d="M296.66 335.443C306.921 332.476 318.822 328.736 330.686 324.643C320.045 290.206 308.096 259.945 291.733 225.121C280.402 229.606 268.803 233.937 258.731 236.698C274.766 269.471 286.269 301.385 296.66 335.443Z" fill="white"/>
<path d="M308.608 218.294L305.98 219.394L298.893 222.264C313.731 254.605 326.438 288.092 336.924 322.483C340.365 321.251 343.779 319.991 347.12 318.705C335.301 284.789 321.867 246.66 308.608 218.294Z" fill="white"/>
</g>
<path d="M80.4915 271.668L127.461 253.145L106.562 234.212L85.6538 242.764L80.4915 271.668Z" fill="#263238"/>
<path d="M233.687 410.45L232.462 417.398L261.658 405.507L280.67 391.917L259.76 372.983L238.852 381.534L233.747 410.484L233.687 410.45Z" fill="#263238"/>
<path d="M252.262 407.421L248.496 393.205L264.568 386.642C269.68 384.582 275.749 385.987 281.726 391.399C294.429 402.892 301.926 428.106 298.473 447.687C296.664 457.947 292.197 464.622 286.554 467.018L286.33 467.11L269.859 473.817L265.927 458.796C255.51 446.535 249.647 424.989 252.262 407.421Z" fill="#37474F"/>
<path d="M252.262 407.421L248.496 393.205L264.568 386.642C269.68 384.582 275.749 385.987 281.726 391.399C294.429 402.892 301.926 428.106 298.473 447.687C296.664 457.947 292.197 464.622 286.554 467.018L286.33 467.11L269.859 473.817L265.927 458.796C255.51 446.535 249.647 424.989 252.262 407.421Z" fill="#263238"/>
<path d="M235.752 412.856C232.775 429.739 237.942 450.817 247.565 463.665L247.618 463.675C249.083 465.649 250.72 467.465 252.507 469.098C265.208 480.603 278.318 474.043 281.762 454.448C284.372 439.649 280.727 421.634 273.363 408.789C273.337 408.758 273.318 408.722 273.305 408.683C271.079 404.737 268.3 401.199 265.065 398.192C252.348 386.72 239.207 393.262 235.752 412.856Z" fill="#37474F"/>
<path d="M262.923 410.029C254.837 402.705 246.415 407.369 244.112 420.431C241.808 433.493 246.497 450.009 254.584 457.321C262.671 464.634 271.09 459.993 273.393 446.931C275.696 433.868 271.01 417.341 262.923 410.029Z" fill="#455A64"/>
<path d="M251.956 428.751C251.427 435.356 254.063 442.925 257.806 445.639C258.43 446.189 259.197 446.519 260.009 446.585C260.82 446.652 261.639 446.452 262.358 446.012C264.041 444.923 265.206 442.299 265.551 438.599C266.069 431.992 263.455 424.427 259.698 421.723C258.86 421.045 257.826 420.703 256.766 420.752C254.28 420.982 252.363 423.951 251.956 428.751Z" fill="#FAFAFA"/>
<path d="M253.57 428.176C253.044 434.77 255.679 442.339 259.423 445.052C260.265 445.723 261.298 446.061 262.358 446.012C264.041 444.923 265.206 442.299 265.551 438.599C266.069 431.992 263.455 424.427 259.698 421.723C258.86 421.045 257.826 420.703 256.766 420.752C255.08 421.852 253.861 424.478 253.57 428.176Z" fill="#E0E0E0"/>
<path d="M235.752 412.856C232.775 429.739 237.942 450.817 247.565 463.665C242.166 454.355 237.479 439.571 237.259 426.207C237.058 414.531 240.736 398.463 250.361 395.934C259.987 393.404 270.217 404.115 273.247 408.697C271.022 404.751 268.243 401.213 265.008 398.206C252.348 386.72 239.207 393.262 235.752 412.856Z" fill="#455A64"/>
<path d="M99.0374 268.741L95.2815 254.527L111.354 247.964C116.457 245.891 122.525 247.307 128.512 252.721C141.214 264.214 148.703 289.414 145.259 309.009C143.45 319.269 138.983 325.944 133.34 328.34L116.609 335.157L112.677 320.135C102.287 307.904 96.4349 286.299 99.0374 268.741Z" fill="#37474F"/>
<path d="M99.0374 268.741L95.2815 254.527L111.354 247.964C116.457 245.891 122.525 247.307 128.512 252.721C141.214 264.214 148.703 289.414 145.259 309.009C143.45 319.269 138.983 325.944 133.34 328.34L116.609 335.157L112.677 320.135C102.287 307.904 96.4349 286.299 99.0374 268.741Z" fill="#263238"/>
<path d="M82.5384 274.178C79.5614 291.061 84.7302 312.127 94.353 324.976L94.3428 325.034C95.8167 327.004 97.4567 328.82 99.2426 330.459C111.943 341.963 125.054 335.404 128.487 315.807C131.097 301.008 127.462 282.994 120.087 270.148L120.019 270.041C117.796 266.095 115.022 262.558 111.789 259.551C99.1338 248.042 85.9932 254.584 82.5384 274.178Z" fill="#37474F"/>
<path d="M109.709 271.351C101.623 264.027 93.2028 268.679 90.8996 281.741C88.5964 294.803 93.2824 311.331 101.37 318.643C109.457 325.956 117.867 321.301 120.17 308.239C122.474 295.177 117.786 278.661 109.709 271.351Z" fill="#455A64"/>
<path d="M98.7309 290.071C98.213 296.678 100.84 304.234 104.594 306.949C105.217 307.501 105.983 307.832 106.794 307.901C107.605 307.97 108.424 307.772 109.144 307.334C110.827 306.245 111.992 303.621 112.337 299.921C112.855 293.314 110.241 285.749 106.476 283.031C105.637 282.356 104.601 282.017 103.541 282.072C101.057 282.291 99.1553 285.239 98.7309 290.071Z" fill="#FAFAFA"/>
<path d="M100.348 289.485C99.8299 296.092 102.455 303.659 106.209 306.374C107.051 307.045 108.084 307.383 109.144 307.334C110.827 306.245 111.992 303.621 112.337 299.921C112.855 293.314 110.241 285.749 106.476 283.031C105.637 282.356 104.601 282.017 103.541 282.072C101.866 283.174 100.638 285.787 100.348 289.485Z" fill="#E0E0E0"/>
<path d="M82.5384 274.178C79.5614 291.061 84.7302 312.127 94.353 324.976C88.0916 313.695 84.5468 300.831 84.0339 287.527C83.8995 275.85 87.5239 259.774 97.1473 257.256C106.771 254.738 117.003 265.437 120.023 270.017C117.801 266.072 115.026 262.535 111.794 259.528C99.1338 248.042 85.9932 254.584 82.5384 274.178Z" fill="#455A64"/>
<path d="M451.105 370.174C440.412 379.5 428.411 386.052 415.649 391.253C341.917 421.235 315.082 396.97 264.827 351.465C216.102 307.352 164.062 245.664 159.782 240.886L219.531 299.599C220.939 300.967 222.707 301.831 224.605 302.078C226.503 302.326 228.443 301.945 230.171 300.986C231.898 300.027 233.334 298.534 234.29 296.703C235.246 294.871 235.678 292.786 235.53 290.719L231.773 238.261C230.832 227.612 226.754 224.552 221.115 219.463C210.265 209.717 191.486 193.94 162.865 167.987C138.119 145.618 126.279 135.268 124.526 126.923L124.592 126.553C124.647 126.24 124.7 125.939 124.755 125.626C124.877 124.932 124.998 124.248 125.203 123.52C126.781 117.435 131.478 110.574 171.077 93.4851C193.461 83.8444 212.091 80.5027 228.024 83.3122C243.958 86.1217 256.58 94.7112 270.537 106.736C288.098 121.773 347.825 171.157 356.805 183.175C365.784 195.194 330.5 209.39 305.98 219.394C281.459 229.398 251.523 241.564 237.435 239.546C235.537 239.28 233.665 238.85 231.838 238.26L237.468 316.982L248.428 326.914C254.254 332.187 261.193 335.849 268.675 337.6C276.156 339.351 283.967 339.14 291.463 336.986C309.186 331.825 333.548 324.276 353.915 315.999C373.303 308.086 392.083 298.419 410.05 287.104C411.998 285.856 413.543 283.974 414.456 281.736C415.37 279.499 415.605 277.023 415.126 274.674C414.919 274.232 414.712 273.79 414.48 273.366C419.173 278.97 430.608 290.681 432 292.181C441.827 302.809 451.814 314.778 456.433 329.383C460.351 341.68 461.607 360.993 451.105 370.174Z" fill="#455A64"/>
<path d="M462.579 416.494C454.006 436.128 427.654 452.293 408.896 459.719C380.596 470.944 350.728 478.62 321.759 470.622C311.07 467.675 300.716 463.02 292.761 454.704C288.927 450.697 289.101 448.47 288.669 442.711C288.177 436.231 286.986 429.858 285.119 423.721C281.946 413.168 276.886 403.488 270.589 396.718C269.76 395.824 268.91 394.982 268.04 394.191C254.046 381.503 239.661 387.205 234.524 406.574C234.21 407.796 233.911 409.056 233.674 410.4L134.974 320.998C134.974 320.998 135.234 319.528 135.526 314.887C135.698 312.059 135.733 309.227 135.629 306.404C135.25 299.116 134.006 291.938 131.926 285.047C128.731 274.49 123.689 264.837 117.385 258.042C116.557 257.144 115.695 256.311 114.831 255.55C100.826 242.86 86.4577 248.529 81.3314 267.899C80.9901 269.148 80.7084 270.414 80.4874 271.691L74.9188 266.637C61.6049 254.571 64.1796 238.476 66.3736 226.779C66.8262 224.71 67.3192 222.349 67.822 219.871L68.0017 218.852C69.192 212.972 70.5562 206.168 72.0551 199.472C72.5804 197.176 73.1058 194.881 73.6737 192.593C73.934 191.553 74.1922 190.523 74.4464 189.518C75.1205 186.938 75.8042 184.491 76.4997 182.226C79.2223 173.441 81.676 169.85 84.0313 167.937C85.2627 167.003 86.5917 166.235 87.9879 165.649C88.9241 165.172 89.8813 164.747 90.8555 164.376C91.6523 164.087 92.4217 163.828 93.1232 163.582C92.125 164.827 91.3354 165.822 90.8239 166.484L99.0908 178.687C104.379 186.45 114.159 188.95 122.956 186.394C123.774 186.159 124.581 185.879 125.374 185.555L147.268 176.639C147.991 176.353 148.639 175.871 149.149 175.241C149.659 174.61 150.014 173.853 150.179 173.041C150.344 172.23 150.314 171.392 150.092 170.608C149.87 169.825 149.463 169.123 148.91 168.571L146.267 165.836L145.075 164.575L143.856 163.274C139.718 158.879 136.364 155.076 131.887 150.298C123.402 141.196 122.737 137.318 123.572 131.71C123.799 130.425 124.044 129.035 124.318 127.484C124.591 125.932 124.796 124.774 125.113 123.409C123.71 132.487 134.292 142.197 162.81 167.989C191.327 193.781 210.179 209.773 221.049 219.463C226.729 224.572 230.779 227.602 231.719 238.251C220.376 234.663 222.086 235.478 205.78 220.723L176.708 194.343C174.852 192.659 172.604 191.548 170.191 191.122C167.778 190.697 165.286 190.972 162.966 191.92L139.845 201.324C138.448 201.893 137.201 202.84 136.224 204.073C135.247 205.305 134.574 206.782 134.271 208.358C133.967 209.935 134.044 211.558 134.493 213.069C134.941 214.58 135.747 215.929 136.832 216.983L236.465 316.017L159.782 240.886C164.064 245.653 216.06 307.345 264.829 351.453C315.084 396.958 341.915 421.247 415.651 391.241C423 388.25 430.042 385.194 436.198 379.891C441.957 374.717 446.151 367.788 448.207 360.051C450.77 351.047 450.97 341.518 450.453 332.197C450.032 324.756 448.941 315.895 446.109 309.187C451.715 315.928 456.771 323.186 461.224 330.885C461.835 331.96 462.412 333.04 462.964 334.141C468.62 345.243 471.523 357.809 471.398 370.648C471.224 387.679 470.105 399.255 462.579 416.494Z" fill="#37474F"/>
<path d="M272.941 137.201C279.922 143.327 286.906 149.43 294.019 155.365C287.359 148.853 280.574 142.487 273.775 136.142C266.975 129.797 263.161 126.366 256.231 120.261L245.781 111.111C242.243 108.099 238.748 105.095 235.189 102.079C238.505 105.351 241.902 108.541 245.248 111.769L255.421 121.312C262.187 127.723 265.969 131.088 272.941 137.201ZM161.448 132.108C164.765 135.38 168.151 138.568 171.508 141.798L181.68 151.341C188.48 157.686 192.254 161.098 199.224 167.222C206.194 173.346 213.181 179.438 220.292 185.384C213.633 178.861 206.859 172.497 200.06 166.152C193.26 159.807 189.486 156.395 182.516 150.271L172.066 141.121C168.505 138.117 165.007 135.064 161.448 132.108ZM250.886 146.219C257.856 152.343 264.843 158.435 271.954 164.381C265.296 157.858 258.511 151.492 251.712 145.147C244.912 138.802 241.148 135.392 234.179 129.268L223.726 120.129C220.199 117.119 216.693 114.113 213.134 111.098C216.451 114.369 219.847 117.559 223.193 120.787L233.366 130.33C240.076 136.683 243.851 140.095 250.886 146.219ZM221.353 158.217C228.323 164.341 235.31 170.433 242.421 176.379C235.762 169.856 228.978 163.49 222.189 157.147C215.4 150.803 211.615 147.39 204.645 141.265L194.195 132.116C190.668 129.106 187.162 126.099 183.603 123.084C186.93 126.357 190.318 129.534 193.673 132.776L203.845 142.318C210.588 148.677 214.371 152.102 221.353 158.217Z" fill="#263238"/>
<path d="M325.27 336.452C331.072 340.446 336.663 344.78 342.02 349.435C347.377 354.069 352.619 358.862 357.507 364.105C361.282 367.767 364.815 371.709 368.082 375.904C372.658 381.487 376.807 387.377 380.971 393.305L378.148 388.544C377.206 386.981 376.279 385.397 375.246 383.913C373.2 380.902 371.164 377.892 368.939 375.028C365.784 370.676 362.309 366.61 358.547 362.868C353.544 357.737 348.261 352.934 342.725 348.484C339.958 346.265 337.108 344.139 334.234 342.092C331.36 340.045 328.365 338.12 325.27 336.452Z" fill="#37474F"/>
<path d="M382.375 310.331C387.173 315.404 391.745 320.699 396.173 326.125C400.601 331.55 404.936 337.067 408.997 342.833C413.058 348.6 413.847 349.229 417.616 355.218C421.385 361.208 424.965 367.344 428.527 373.512C426.991 370.28 425.464 367.002 423.79 363.865C422.117 360.728 420.403 357.573 418.573 354.516C416.021 350.091 413.217 345.849 410.176 341.811C406.007 336.097 401.643 330.552 397.025 325.272C394.716 322.632 392.339 320.064 389.933 317.538C387.527 315.012 384.96 312.59 382.375 310.331Z" fill="#37474F"/>
<path d="M147.31 176.587L125.416 185.502C116.047 189.319 104.909 187.116 99.1329 178.635L90.866 166.432C94.5903 161.668 112.488 139.344 123.687 131.623C122.941 135.85 123.927 140.274 127.671 144.791C133.414 151.714 142.118 161.499 148.955 168.507C149.509 169.059 149.919 169.762 150.142 170.547C150.366 171.331 150.396 172.171 150.231 172.985C150.065 173.798 149.709 174.558 149.198 175.189C148.686 175.82 148.036 176.302 147.31 176.587Z" fill="black"/>
<path d="M254.115 349.767L262.366 357.896C262.541 358.073 262.673 358.294 262.752 358.541C262.83 358.787 262.853 359.052 262.818 359.313L262.138 364.411C262.115 364.598 262.044 364.776 261.934 364.924C261.823 365.072 261.678 365.185 261.514 365.251C261.349 365.316 261.173 365.331 261.004 365.294C260.835 365.257 260.68 365.169 260.558 365.04L252.319 357.032C252.139 356.855 252.002 356.633 251.92 356.383C251.838 356.134 251.813 355.865 251.847 355.6L252.535 350.396C252.558 350.209 252.629 350.032 252.739 349.883C252.849 349.735 252.995 349.622 253.159 349.556C253.323 349.491 253.5 349.476 253.669 349.513C253.838 349.551 253.992 349.638 254.115 349.767Z" fill="#F99417"/>
<path d="M134.985 321L133.76 327.948L232.478 417.305L233.703 410.357L134.985 321Z" fill="#37474F"/>
<g opacity="0.2">
<path d="M165.71 344.973C165.792 344.983 165.874 344.975 165.954 344.949C166.033 344.924 166.108 344.882 166.173 344.826C166.238 344.769 166.292 344.7 166.333 344.621C166.374 344.542 166.399 344.456 166.409 344.368C166.487 343.928 172.129 298.99 178.848 267.602C178.885 267.427 178.857 267.245 178.771 267.096C178.684 266.947 178.546 266.842 178.386 266.804C178.229 266.776 178.066 266.816 177.932 266.915C177.798 267.014 177.703 267.164 177.667 267.334C170.893 298.784 165.219 343.776 165.204 344.239C165.184 344.41 165.226 344.582 165.32 344.718C165.414 344.855 165.554 344.946 165.71 344.973Z" fill="black"/>
</g>
<path opacity="0.2" d="M119.635 242.547C127.532 247.521 133.691 255.318 138.271 263.743C142.926 272.483 146.022 282.13 147.401 292.194C148.207 297.828 148.907 303.933 148.009 309.649C147.917 310.171 147.046 310.506 146.965 309.847C146.638 307.223 146.591 304.564 146.432 301.921C146.273 299.278 146.021 296.786 145.693 294.233C145.022 289.103 143.941 284.059 142.462 279.156C139.702 269.964 135.342 261.472 129.612 254.133C126.43 250.19 122.951 246.541 119.209 243.224C118.937 243.021 119.319 242.348 119.635 242.547Z" fill="black"/>
<path d="M237.382 239.536C238.928 239.735 240.49 239.799 242.053 239.727C240.547 243.044 240.8 247.769 241.31 256.384C242.063 270.773 245.596 306.093 246.6 315.571C247.605 325.05 254.552 331.302 259.866 334.507C255.728 332.575 251.878 330.015 248.43 326.903L237.468 316.982L231.838 238.26C233.648 238.844 235.502 239.271 237.382 239.536Z" fill="black"/>
<path d="M187.007 267.298L177.223 257.788L192.203 208.347L199.136 214.62L187.007 267.298Z" fill="black"/>
<path d="M78.2873 190.063C76.9995 190.016 75.7272 189.791 74.5007 189.396C75.1749 186.816 75.8585 184.37 76.5541 182.104C79.2767 173.319 81.7304 169.728 84.0857 167.815C84.1482 167.931 84.2208 168.039 84.3026 168.14C86.7764 171.525 89.9648 177.078 91.0125 181.585C91.211 182.418 91.2952 183.282 91.2624 184.149C90.9415 190.384 82.2361 190.246 78.2873 190.063Z" fill="#F99417"/>
<path d="M436.212 374.401C415.29 385.617 393.412 394.484 370.931 400.86C367.603 401.825 365.364 405.561 366.822 408.863C369.041 413.756 372.187 418.067 376.061 421.525C378.699 423.793 384.143 424.144 387.501 423.446C406.445 419.257 422.777 412.696 436.496 403.764C439.469 401.829 443.303 397.502 444.055 393.861C445.133 388.678 445.647 381.533 444.818 376.659C444.195 373.039 439.312 372.679 436.212 374.401Z" fill="#263238"/>
<path d="M381.567 419.534C383.311 419.845 385.1 419.833 386.859 419.5C405.301 415.421 421.387 408.968 434.657 400.323C437.197 398.67 439.957 395.145 440.429 393.091C441.502 388.021 441.756 382.813 441.179 377.701C440.823 376.301 438.614 377.571 437.833 378.018C416.677 389.352 394.558 398.32 371.83 404.779C371.493 404.87 371.176 405.038 370.9 405.272C370.624 405.505 370.396 405.799 370.232 406.133C370.155 406.277 370.113 406.439 370.109 406.603C370.105 406.767 370.139 406.929 370.209 407.072C372.19 411.441 374.999 415.291 378.459 418.377C379.396 419.009 380.458 419.404 381.567 419.534Z" fill="black"/>
<path d="M411.839 413.732L415.555 413.432C415.053 405.049 413.587 396.797 411.19 388.866L407.652 390.272C409.927 397.851 411.333 405.729 411.839 413.732Z" fill="#263238"/>
<path d="M413.014 400.412C400.051 405.884 386.747 410.28 373.221 413.561L373.313 414.222C386.882 410.932 400.229 406.523 413.233 401.035C428.986 394.106 441.622 387.009 441.74 386.958L441.473 386.361C441.343 386.41 428.731 393.5 413.014 400.412ZM413.854 402.864C401.11 408.248 388.023 412.547 374.715 415.723L374.807 416.384C388.158 413.191 401.288 408.875 414.075 403.476C429.826 396.558 441.383 389.916 441.495 389.84L441.215 389.253C441.105 389.317 429.582 395.954 413.862 402.818L413.854 402.864ZM415.546 407.759C403.235 412.987 390.575 417.112 377.695 420.093L377.787 420.754C390.712 417.751 403.417 413.601 415.771 408.348C424.405 404.646 432.844 400.4 441.044 395.635L440.753 395.046C432.578 399.818 424.161 404.063 415.546 407.759ZM414.666 405.347C402.167 410.642 389.323 414.845 376.258 417.918L376.35 418.579C389.485 415.486 402.4 411.259 414.968 405.938C423.94 402.041 432.732 397.645 441.308 392.768L441.017 392.179C432.443 397.068 423.647 401.463 414.666 405.347ZM412.134 398C398.95 403.522 385.438 408 371.706 411.396L371.797 412.057C385.572 408.649 399.127 404.159 412.353 398.623C428.105 391.706 441.831 384.144 441.964 384.072L441.696 383.476C441.55 383.498 427.892 391.047 412.164 397.957L412.134 398ZM368.719 407.06L368.811 407.721C383.015 404.134 396.997 399.474 410.653 393.774C426.406 386.845 442.289 378.374 442.456 378.296L442.188 377.7C442.032 377.78 426.162 386.241 410.434 393.151C396.83 398.802 382.903 403.42 368.757 406.972L368.719 407.06ZM411.318 395.599C397.915 401.2 384.187 405.766 370.239 409.263L370.331 409.924C384.32 406.41 398.091 401.832 411.537 396.223C427.289 389.305 442.089 381.312 442.239 381.207L441.971 380.611C441.831 380.598 427.05 388.606 411.324 395.505L411.318 395.599Z" fill="#263238"/>
<path d="M413.599 425.457C392.867 432.822 365.785 443.294 338.908 438.053C312.03 432.813 290.805 409.011 290.805 409.011C302.614 425.445 319.197 437.061 338.001 442.073C369.163 450.134 391.829 439.516 413.203 431.56C435.403 423.332 456.706 403.28 462.026 389.962C456.122 400.001 434.351 418.108 413.599 425.457Z" fill="#263238"/>
<path d="M370.815 462.413C389.116 459.814 402.935 453.844 416.526 447.358C430.117 440.871 439.268 434.377 444.776 428.578C449.974 423.107 453.643 415.611 450.757 416.368C445.564 420.133 434.354 428.102 427.427 431.501C406.683 441.73 384.372 454.81 353.135 451.535C351.139 451.196 349.107 451.114 347.08 451.291C339.145 452.817 358.373 464.183 370.815 462.413Z" fill="#263238"/>
<path d="M308.264 436.566C310.043 436.558 314.172 438.456 321.154 441.836C328.136 445.216 329.896 445.682 332.306 448.125C334.343 450.191 339.654 456.584 342.382 458.653C346.687 461.98 341.639 463.179 328.518 461.271C315.398 459.364 311.557 454.4 309.207 449.508C306.856 444.616 304.226 436.583 308.264 436.566Z" fill="#37474F"/>
<path d="M460.881 412.505C459.392 413.497 457.749 414.176 456.042 414.506C453.825 414.019 456.383 410.088 458.98 404.063C461.578 398.038 467.315 392.184 469.534 387.751C467.673 396.352 464.762 404.678 460.881 412.505Z" fill="#37474F"/>
<path d="M350.084 408.813C353.87 409.672 357.389 410.925 360.374 414.209C363.359 417.494 368.408 425.059 363.571 429.352C361.583 431.115 358.879 431.521 356.332 431.657C347.829 431.894 339.505 429.545 332.304 424.877C327.533 421.968 323.447 417.933 320.338 413.06C319.381 411.694 318.757 410.083 318.522 408.37C318.427 407.518 318.562 406.646 318.911 405.861C319.259 405.075 319.807 404.408 320.488 403.941C322.053 403.023 324.255 403.411 325.858 403.777L338.645 406.641C342.47 407.399 346.298 407.955 350.084 408.813Z" fill="#FAFAFA"/>
<path d="M333.097 425.292C331.911 418.943 333.06 412.271 336.302 406.681C336.413 406.486 336.545 406.295 336.667 406.101L325.885 403.686C324.282 403.32 322.066 403.013 320.515 403.85C319.834 404.318 319.286 404.984 318.938 405.77C318.589 406.555 318.454 407.427 318.549 408.279C318.784 409.992 319.408 411.603 320.365 412.97C323.474 417.842 327.56 421.877 332.331 424.787L333.097 425.292Z" fill="#F99417"/>
<path d="M453.067 362.341C450.968 369.991 450.567 378.021 451.898 385.764C451.959 386.261 452.133 386.73 452.403 387.131C455.361 390.757 462.741 374.399 463.314 372.518C465.38 365.718 465.21 355.05 463.291 347.213C462.483 343.894 461.062 342.378 459.192 345.893C457.4 349.472 455.884 353.199 454.661 357.034C454.07 358.769 453.536 360.549 453.067 362.341Z" fill="#FAFAFA"/>
<path d="M463.301 347.215C462.483 343.894 461.062 342.378 459.149 345.886C458.194 347.718 457.344 349.61 456.604 351.55C459.969 354.453 462.437 358.394 463.698 362.878C464.008 363.984 464.235 365.122 464.472 366.262C465.114 359.855 464.718 353.409 463.301 347.215Z" fill="#F99417"/>
<path d="M218.36 320.048C218.549 331.914 229.801 336.394 238.593 337.657C243.257 338.325 247.228 338.07 248.482 337.55C252.23 336.014 251.453 331.34 250.083 328.472C247.782 323.612 235.569 312.516 226.985 310.692C222.072 309.635 218.237 311.728 218.36 320.048Z" fill="#263238"/>
<path d="M218.36 320.048C218.549 331.914 229.801 336.394 238.593 337.657C243.257 338.325 247.228 338.07 248.482 337.55C252.23 336.014 251.453 331.34 250.083 328.472C251.173 332.246 241.778 332.846 234.309 328.305C226.841 323.765 222.047 315.934 226.985 310.692C222.072 309.635 218.237 311.728 218.36 320.048Z" fill="#455A64"/>
<path d="M218.36 320.048C218.549 331.914 229.801 336.394 238.593 337.657C229.942 335.845 223.958 329.166 222.393 322.741C220.828 316.316 223.83 310.924 227.038 310.701C222.072 309.635 218.237 311.728 218.36 320.048Z" fill="#37474F"/>
<path d="M65.7885 265.612L73.8011 272.852L77.1844 253.664C65.5984 243.18 67.0186 245.388 64.4937 239.618C63.547 237.641 63.1074 235.414 63.2195 233.16C60.1874 250.357 59.4138 259.844 65.7885 265.612Z" fill="#263238"/>
<path d="M63.2195 233.16C63.1074 235.414 63.547 237.641 64.4937 239.618C67.0186 245.388 65.5984 243.18 77.1844 253.664L82.734 251.299C82.734 251.299 80.9753 249.58 74.1027 243.402C67.2301 237.223 66.0246 233.237 66.1038 230.051C66.0809 228.945 66.1771 227.836 66.3903 226.747C64.4758 227.902 63.8055 229.837 63.2195 233.16Z" fill="#455A64"/>
<path d="M82.7258 251.346L79.3302 270.603L73.8011 272.852L77.1844 253.664L82.7258 251.346Z" fill="#37474F"/>
<path d="M445.151 184.155C438.7 191.42 429.948 195.735 420.677 196.219L416.498 196.219C407.289 195.654 398.618 191.316 392.227 184.076C385.835 176.837 382.197 167.233 382.042 157.193C381.888 147.153 385.229 137.421 391.394 129.953C397.559 122.484 406.091 117.832 415.277 116.932L419.457 116.755C426.583 116.866 433.524 119.245 439.423 123.599C445.322 127.953 449.922 134.091 452.656 141.256C455.39 148.422 456.138 156.301 454.809 163.924C453.479 171.547 450.129 178.58 445.173 184.155L445.151 184.155Z" fill="white"/>
<path d="M446.404 125.456C439.239 118.018 429.776 113.767 419.878 113.54C409.979 113.313 400.361 117.126 392.914 124.229C385.467 131.333 380.731 141.213 379.637 151.926C378.543 162.639 381.17 173.41 387.002 182.121L382.228 194.491C382.047 194.957 382 195.471 382.093 195.967C382.186 196.463 382.415 196.916 382.75 197.267C383.084 197.618 383.508 197.851 383.966 197.935C384.425 198.019 384.895 197.949 385.317 197.736L396.506 192.104C404.705 198.232 414.721 200.78 424.566 199.242C434.411 197.705 443.365 192.195 449.652 183.805C455.939 175.415 459.099 164.758 458.505 153.95C457.912 143.142 453.608 132.971 446.447 125.456L446.404 125.456ZM445.151 184.155C438.7 191.42 429.948 195.735 420.677 196.219L416.498 196.219C407.289 195.654 398.618 191.316 392.227 184.076C385.835 176.837 382.197 167.233 382.042 157.193C381.888 147.153 385.229 137.421 391.394 129.953C397.559 122.484 406.091 117.832 415.277 116.932L419.457 116.755C426.583 116.866 433.524 119.245 439.423 123.599C445.322 127.953 449.922 134.091 452.656 141.256C455.39 148.422 456.138 156.301 454.809 163.924C453.479 171.547 450.129 178.58 445.173 184.155L445.151 184.155Z" fill="#F99417"/>
<path opacity="0.7" d="M445.151 184.155C438.7 191.42 429.948 195.735 420.677 196.219L416.498 196.219C407.289 195.654 398.618 191.316 392.227 184.076C385.835 176.837 382.197 167.233 382.042 157.193C381.888 147.153 385.229 137.421 391.394 129.953C397.559 122.484 406.091 117.832 415.277 116.932L419.457 116.755C426.583 116.866 433.524 119.245 439.423 123.599C445.322 127.953 449.922 134.091 452.656 141.256C455.39 148.422 456.138 156.301 454.809 163.924C453.479 171.547 450.129 178.58 445.173 184.155L445.151 184.155Z" fill="white"/>
<path d="M418.863 127.749C413.64 127.749 408.535 129.436 404.193 132.596C399.852 135.756 396.468 140.247 394.472 145.501C392.475 150.754 391.955 156.535 392.977 162.111C393.999 167.687 396.517 172.807 400.213 176.825C403.909 180.842 408.617 183.575 413.74 184.679C418.863 185.782 424.172 185.206 428.994 183.024C433.817 180.842 437.936 177.151 440.832 172.419C443.727 167.687 445.268 162.126 445.259 156.44C445.248 148.827 442.462 141.529 437.513 136.15C432.564 130.771 425.856 127.749 418.863 127.749ZM429.437 136.168C430.055 138.706 431.211 141.051 432.813 143.013C434.415 144.976 436.418 146.502 438.66 147.468C438.907 148.134 439.007 148.853 438.954 149.569C438.901 150.284 438.695 150.977 438.353 151.59C438.012 152.204 437.543 152.723 436.985 153.106C436.428 153.488 435.795 153.724 435.139 153.795C433.854 153.936 432.418 154.065 430.819 154.147C430.533 154.147 430.258 154.023 430.055 153.803C429.853 153.582 429.739 153.283 429.739 152.971C429.785 152.293 429.67 151.612 429.404 150.996C428.4 148.879 425.084 147.704 418.852 147.704C412.62 147.704 409.305 148.879 408.3 150.996C408.04 151.614 407.925 152.293 407.965 152.971C407.965 153.283 407.851 153.582 407.649 153.803C407.446 154.023 407.172 154.147 406.885 154.147C405.308 154.065 403.872 153.936 402.565 153.795C401.909 153.724 401.277 153.488 400.719 153.106C400.161 152.723 399.693 152.204 399.351 151.59C399.009 150.977 398.804 150.284 398.75 149.569C398.697 148.853 398.798 148.134 399.044 147.468C401.286 146.502 403.289 144.976 404.891 143.013C406.493 141.051 407.65 138.706 408.268 136.168C411.49 134.173 415.134 133.123 418.841 133.123C422.549 133.123 426.192 134.173 429.415 136.168L429.437 136.168ZM400.664 160.544C403.582 160.152 406.516 159.921 409.456 159.85C409.704 159.841 409.951 159.899 410.174 160.02C410.397 160.142 410.588 160.322 410.73 160.544L411.119 161.097C412.327 162.885 413.865 164.379 415.634 165.482C415.818 165.586 415.971 165.746 416.075 165.942C416.178 166.138 416.227 166.362 416.217 166.588C416.12 168.646 415.979 170.48 415.817 172.079C415.708 173.047 415.38 173.971 414.861 174.766C414.342 175.562 413.65 176.205 412.846 176.636C412.043 177.068 411.153 177.275 410.258 177.239C409.362 177.203 408.489 176.925 407.717 176.43C403.486 173.595 400.282 169.26 398.644 164.154C398.521 163.772 398.477 163.365 398.515 162.963C398.554 162.561 398.674 162.173 398.867 161.827C399.061 161.481 399.322 161.187 399.633 160.965C399.944 160.743 400.296 160.599 400.664 160.544ZM421.909 172.079C421.747 170.48 421.606 168.646 421.509 166.588C421.498 166.362 421.548 166.138 421.651 165.942C421.755 165.746 421.908 165.586 422.092 165.482C423.861 164.379 425.399 162.885 426.607 161.097C426.746 160.92 426.876 160.736 426.996 160.544C427.14 160.324 427.332 160.146 427.554 160.025C427.776 159.904 428.022 159.844 428.27 159.85C431.21 159.92 434.144 160.152 437.062 160.544C437.433 160.592 437.79 160.73 438.107 160.948C438.423 161.166 438.69 161.458 438.889 161.803C439.088 162.148 439.213 162.537 439.256 162.942C439.299 163.347 439.257 163.757 439.135 164.142C437.504 169.252 434.299 173.589 430.063 176.418C429.29 176.926 428.413 177.215 427.511 177.259C426.609 177.302 425.711 177.099 424.9 176.667C424.089 176.236 423.39 175.59 422.867 174.788C422.345 173.987 422.015 173.055 421.909 172.079Z" fill="#37474F"/>
<path d="M418.863 172.208C419.88 172.205 420.893 172.087 421.887 171.856C421.736 170.303 421.606 168.551 421.509 166.588C421.498 166.362 421.548 166.138 421.651 165.942C421.755 165.746 421.908 165.586 422.092 165.482C423.861 164.379 425.399 162.885 426.607 161.097C426.746 160.92 426.876 160.736 426.996 160.544C427.14 160.324 427.332 160.146 427.554 160.025C427.776 159.904 428.022 159.844 428.27 159.85C429.966 159.85 431.51 159.979 432.914 160.097C433.171 158.914 433.301 157.703 433.303 156.487C433.301 155.668 433.243 154.851 433.13 154.041L430.873 154.194C430.587 154.194 430.312 154.07 430.109 153.85C429.907 153.629 429.793 153.33 429.793 153.018C429.839 152.34 429.724 151.659 429.458 151.043C428.454 148.926 425.138 147.751 418.906 147.751C412.674 147.751 409.359 148.926 408.354 151.043C408.094 151.661 407.979 152.34 408.019 153.018C408.019 153.33 407.906 153.629 407.703 153.85C407.5 154.07 407.226 154.194 406.939 154.194L404.682 154.041C404.556 154.834 404.487 155.636 404.477 156.44C404.479 157.656 404.609 158.867 404.866 160.05C406.28 159.932 407.825 159.85 409.51 159.803C409.759 159.794 410.005 159.852 410.228 159.973C410.451 160.095 410.642 160.275 410.784 160.497L411.173 161.05C412.381 162.838 413.919 164.332 415.688 165.435C415.872 165.539 416.025 165.699 416.129 165.895C416.232 166.091 416.282 166.315 416.271 166.541C416.174 168.504 416.044 170.256 415.893 171.809C416.868 172.052 417.863 172.186 418.863 172.208Z" fill="#E0E0E0"/>
<path opacity="0.1" d="M418.863 172.208C419.88 172.205 420.893 172.087 421.887 171.856C421.736 170.303 421.606 168.551 421.509 166.588C421.498 166.362 421.548 166.138 421.651 165.942C421.755 165.746 421.908 165.586 422.092 165.482C423.861 164.379 425.399 162.885 426.607 161.097C426.746 160.92 426.876 160.736 426.996 160.544C427.14 160.324 427.332 160.146 427.554 160.025C427.776 159.904 428.022 159.844 428.27 159.85C429.966 159.85 431.51 159.979 432.914 160.097C433.171 158.914 433.301 157.703 433.303 156.487C433.301 155.668 433.243 154.851 433.13 154.041L430.873 154.194C430.587 154.194 430.312 154.07 430.109 153.85C429.907 153.629 429.793 153.33 429.793 153.018C429.839 152.34 429.724 151.659 429.458 151.043C428.454 148.926 425.138 147.751 418.906 147.751C412.674 147.751 409.359 148.926 408.354 151.043C408.094 151.661 407.979 152.34 408.019 153.018C408.019 153.33 407.906 153.629 407.703 153.85C407.5 154.07 407.226 154.194 406.939 154.194L404.682 154.041C404.556 154.834 404.487 155.636 404.477 156.44C404.479 157.656 404.609 158.867 404.866 160.05C406.28 159.932 407.825 159.85 409.51 159.803C409.759 159.794 410.005 159.852 410.228 159.973C410.451 160.095 410.642 160.275 410.784 160.497L411.173 161.05C412.381 162.838 413.919 164.332 415.688 165.435C415.872 165.539 416.025 165.699 416.129 165.895C416.232 166.091 416.282 166.315 416.271 166.541C416.174 168.504 416.044 170.256 415.893 171.809C416.868 172.052 417.863 172.186 418.863 172.208Z" fill="black"/>
<path d="M418.863 166.411C416.163 166.411 413.571 164.471 411.119 161.097C408.667 157.722 407.296 153.16 408.311 151.031C409.326 148.903 412.631 147.739 418.863 147.739C425.095 147.739 428.411 148.915 429.415 151.031C430.42 153.148 429.059 157.722 426.607 161.097C424.155 164.471 421.563 166.411 418.863 166.411Z" fill="#455A64"/>
<path d="M418.863 164.601C416.703 164.601 414.597 163.037 412.62 160.32C410.644 157.604 409.542 153.912 410.363 152.207C411.184 150.502 413.841 149.561 418.863 149.561C423.885 149.561 426.553 150.502 427.374 152.207C428.195 153.912 427.082 157.604 425.106 160.32C423.129 163.037 421.034 164.601 418.863 164.601Z" fill="#E0E0E0"/>
<path d="M418.863 151.807L426.196 158.545C427.449 156.193 428.011 153.571 427.374 152.207C426.553 150.502 423.885 149.561 418.863 149.561C413.841 149.561 411.173 150.502 410.363 152.207C409.715 153.571 410.277 156.17 411.529 158.545L418.863 151.807Z" fill="#263238"/>
<path d="M418.863 162.319C417.34 162.319 415.871 161.226 414.489 159.321C413.106 157.416 412.329 154.841 412.901 153.642C413.474 152.442 415.342 151.784 418.863 151.784C422.384 151.784 424.263 152.442 424.825 153.642C425.386 154.841 424.62 157.416 423.237 159.321C421.855 161.226 420.386 162.319 418.863 162.319Z" fill="#455A64"/>
</svg>
