<svg width="192" height="40" viewBox="0 0 192 40" fill="none" xmlns="http://www.w3.org/2000/svg">
<path d="M7.30922 20.36H5.02922V20.6L5.50922 31H0.149219L0.629219 21.28L0.149219 3.4H8.82922C11.3892 3.4 13.4292 4.09333 14.9492 5.48C16.4692 6.86667 17.2292 8.70667 17.2292 11C17.2292 12.7333 16.7759 14.32 15.8692 15.76C14.9892 17.1733 13.7892 18.2933 12.2692 19.12L19.2292 28.96L14.3892 31.44L8.14922 20.32C7.96255 20.3467 7.68255 20.36 7.30922 20.36ZM7.38922 7.44H5.42922L5.14922 16.48H7.86922C9.20255 16.48 10.2292 16.04 10.9492 15.16C11.6959 14.28 12.0692 13.0267 12.0692 11.4C12.0692 8.76 10.5092 7.44 7.38922 7.44ZM26.4333 31C24.8599 31 23.5666 30.5067 22.5533 29.52C21.5666 28.5067 21.0733 27.16 21.0733 25.48C21.0733 23.7733 21.8466 22.3067 23.3933 21.08C24.9399 19.8267 26.8199 19.2 29.0333 19.2H31.7533V18.52C31.7533 17.2133 31.4866 16.32 30.9533 15.84C30.4199 15.36 29.4199 15.12 27.9533 15.12C27.3399 15.12 26.6066 15.2533 25.7533 15.52C24.9266 15.76 23.9933 16.1467 22.9533 16.68L21.7933 13.52C22.9399 12.72 24.3266 12 25.9533 11.36C27.6066 10.72 28.9666 10.4 30.0333 10.4C34.2199 10.4 36.3133 12.4267 36.3133 16.48V24.32C36.3133 25.8133 36.7799 27.48 37.7133 29.32L33.4733 31.12C32.8066 29.84 32.3133 28.6933 31.9933 27.68C30.5266 29.8933 28.6733 31 26.4333 31ZM28.1133 26.92C29.1799 26.92 30.3933 26.3733 31.7533 25.28V22.6C30.3399 22.28 29.1933 22.12 28.3133 22.12C26.6333 22.12 25.7933 22.8667 25.7933 24.36C25.7933 25.1333 26.0066 25.76 26.4333 26.24C26.8599 26.6933 27.4199 26.92 28.1133 26.92ZM47.2233 27.28C48.6099 27.28 49.3033 26.6667 49.3033 25.44C49.3033 25.0133 48.9966 24.6133 48.3833 24.24C47.7966 23.8667 47.0633 23.4933 46.1833 23.12C45.3299 22.7467 44.4633 22.3333 43.5833 21.88C42.7299 21.4 41.9966 20.7467 41.3833 19.92C40.7966 19.0933 40.5033 18.1467 40.5033 17.08C40.5033 15.2933 41.2899 13.7333 42.8633 12.4C44.4366 11.0667 46.2499 10.4 48.3033 10.4C49.2633 10.4 50.1966 10.52 51.1033 10.76C52.0366 10.9733 52.9299 11.32 53.7833 11.8L51.1033 16.68C50.9166 16.52 50.6766 16.32 50.3833 16.08C50.0899 15.84 49.5299 15.5333 48.7033 15.16C47.9033 14.76 47.1833 14.56 46.5433 14.56C45.9299 14.56 45.4499 14.7067 45.1033 15C44.7833 15.2667 44.6233 15.6533 44.6233 16.16C44.6233 16.64 45.0766 17.1333 45.9833 17.64C46.9166 18.12 47.9299 18.5733 49.0233 19C50.1166 19.4 51.1166 20.08 52.0233 21.04C52.9566 21.9733 53.4233 23.0933 53.4233 24.4C53.4233 26.2667 52.6499 27.9067 51.1033 29.32C49.5833 30.7333 47.8233 31.44 45.8233 31.44C44.5433 31.44 43.3433 31.16 42.2233 30.6C41.1299 30.04 40.3433 29.48 39.8633 28.92L39.1433 28.08L42.3033 24.4C42.4633 24.6133 42.6899 24.88 42.9833 25.2C43.2766 25.52 43.8499 25.9467 44.7033 26.48C45.5833 27.0133 46.4233 27.28 47.2233 27.28ZM69.4055 31.4L61.8855 20.32V20.6L62.3255 30L56.9255 31L57.4055 21.28L56.9255 1.04L62.4055 0.0399981L61.8855 19.36L69.8855 10.6L73.6455 13.16L66.6455 19.72L73.9655 28.36L69.4055 31.4ZM98.7542 17.96C99.1009 20.12 99.2742 21.5867 99.2742 22.36C99.2742 23.1067 99.2342 23.68 99.1542 24.08L103.674 28.52L100.394 31.44C99.4876 30.4533 98.4209 29.32 97.1942 28.04C96.3142 29.08 95.2476 29.9067 93.9942 30.52C92.7409 31.1333 91.4342 31.44 90.0742 31.44C87.6476 31.44 85.6342 30.7867 84.0342 29.48C82.4342 28.1467 81.6342 26.48 81.6342 24.48C81.6342 21.7867 83.2076 19.52 86.3542 17.68C84.2209 15.4667 83.1542 13.4667 83.1542 11.68C83.1542 9.86667 83.9542 8.30667 85.5542 7C87.1542 5.66667 89.0876 5 91.3542 5C92.7409 5 94.0209 5.14666 95.1942 5.44C96.3942 5.73333 97.2476 6.01333 97.7542 6.28L98.4742 6.72L95.9942 11.44C95.3009 10.8533 94.4342 10.3333 93.3942 9.88C92.3809 9.4 91.4076 9.16 90.4742 9.16C89.5676 9.16 88.8476 9.37333 88.3142 9.8C87.8076 10.2267 87.5542 10.7733 87.5542 11.44C87.5542 12.3733 87.8742 13.2267 88.5142 14C89.1542 14.7733 90.6876 16.2267 93.1142 18.36L95.8742 20.92C95.7409 19.5333 95.3942 17.5067 94.8342 14.84L95.3542 14.32H103.754L103.434 17.96H98.7542ZM88.1542 19.44C86.9009 20.64 86.2742 21.8533 86.2742 23.08C86.2742 24.3067 86.7009 25.3333 87.5542 26.16C88.4342 26.9867 89.6742 27.4 91.2742 27.4C92.8742 27.4 94.1009 26.8533 94.9542 25.76C93.2209 24 91.5942 22.44 90.0742 21.08C89.4342 20.6 88.7942 20.0533 88.1542 19.44ZM111.676 8L112.116 3.4H131.116L130.676 8L123.716 7.4L123.556 20.6L124.036 31H118.436L118.916 21.28L118.756 7.44L111.676 8ZM138.809 10.64L138.329 20.6L138.769 30L133.409 31L133.889 21.28L133.449 11.64L138.809 10.64ZM133.169 4.8C133.169 3.89333 133.516 3.09333 134.209 2.4C134.902 1.68 135.702 1.32 136.609 1.32C137.516 1.32 138.209 1.57333 138.689 2.08C139.169 2.56 139.409 3.29333 139.409 4.28C139.409 5.26666 139.062 6.12 138.369 6.84C137.702 7.53333 136.916 7.88 136.009 7.88C135.129 7.88 134.436 7.58667 133.929 7C133.422 6.41333 133.169 5.68 133.169 4.8ZM153.775 27.08C151.695 29.6933 149.895 31 148.375 31C146.481 31 144.921 30.2267 143.695 28.68C142.495 27.1333 141.895 25.1467 141.895 22.72C141.895 19.3867 142.815 16.5733 144.655 14.28C146.521 11.9867 148.801 10.84 151.495 10.84L153.735 11.16V10.4L153.255 1.04L158.735 0.0399981L158.215 20.6V24.12C158.215 25.72 158.615 27.56 159.415 29.64L155.095 31.44C154.321 29.84 153.881 28.3867 153.775 27.08ZM146.375 20.64C146.375 22.3467 146.681 23.68 147.295 24.64C147.935 25.6 148.841 26.08 150.015 26.08C151.215 26.08 152.455 25.6 153.735 24.64V16C152.135 15.68 150.948 15.52 150.175 15.52C148.975 15.52 148.041 15.9467 147.375 16.8C146.708 17.6533 146.375 18.9333 146.375 20.64ZM168.653 10.64L168.173 20.6L168.613 30L163.253 31L163.733 21.28L163.293 11.64L168.653 10.64ZM163.013 4.8C163.013 3.89333 163.359 3.09333 164.053 2.4C164.746 1.68 165.546 1.32 166.453 1.32C167.359 1.32 168.053 1.57333 168.533 2.08C169.013 2.56 169.253 3.29333 169.253 4.28C169.253 5.26666 168.906 6.12 168.213 6.84C167.546 7.53333 166.759 7.88 165.853 7.88C164.973 7.88 164.279 7.58667 163.773 7C163.266 6.41333 163.013 5.68 163.013 4.8ZM171.658 34.96C171.658 32.6133 173.845 30.7733 178.218 29.44C177.178 28.9067 176.658 28.2133 176.658 27.36C176.658 27.0133 176.792 26.6667 177.058 26.32C177.325 25.9733 177.712 25.6133 178.218 25.24V24.92C176.298 24.92 174.765 24.3867 173.618 23.32C172.498 22.2533 171.938 20.8267 171.938 19.04C171.938 16.72 172.885 14.7067 174.778 13C176.672 11.2667 178.912 10.4 181.498 10.4C182.165 10.4 183.138 10.5333 184.418 10.8C185.698 11.0667 186.952 11.2 188.178 11.2H191.258L190.858 14.68L187.858 14.32C188.125 15.0933 188.258 15.9733 188.258 16.96C188.258 17.9467 188.018 18.9333 187.538 19.92C187.085 20.88 186.525 21.6533 185.858 22.24C185.218 22.8267 184.565 23.3467 183.898 23.8C183.258 24.2267 182.698 24.6133 182.218 24.96C181.765 25.28 181.538 25.5733 181.538 25.84C181.538 26.3467 182.072 26.7867 183.138 27.16C185.965 28.3067 187.872 29.28 188.858 30.08C189.872 30.88 190.378 31.8667 190.378 33.04C190.378 35.0133 189.378 36.6267 187.378 37.88C185.405 39.16 183.045 39.8 180.298 39.8C177.552 39.8 175.418 39.36 173.898 38.48C172.405 37.6 171.658 36.4267 171.658 34.96ZM183.738 18.16C183.738 16.8533 183.445 15.8933 182.858 15.28C182.272 14.6667 181.352 14.36 180.098 14.36C177.672 14.36 176.458 15.56 176.458 17.96C176.458 20.3333 177.752 21.52 180.338 21.52C182.605 21.52 183.738 20.4 183.738 18.16ZM185.178 33.64C185.178 33.16 184.925 32.7067 184.418 32.28C183.912 31.88 183.005 31.4 181.698 30.84C179.752 31.3733 178.405 31.8667 177.658 32.32C176.938 32.7733 176.578 33.3333 176.578 34C176.578 34.6667 176.938 35.2 177.658 35.6C178.405 36.0267 179.432 36.24 180.738 36.24C182.045 36.24 183.112 36 183.938 35.52C184.765 35.04 185.178 34.4133 185.178 33.64Z" fill="#F99417"/>
</svg>
